M48
;DRILL file {KiCad 0.201510170916+6271~30~ubuntu14.04.1-product} date lun. 26 oct. 2015 23:12:28 CET
;FORMAT={-:-/ absolute / metric / decimal}
FMAT,2
METRIC,TZ
T1C0.400
T2C1.016
T3C2.000
%
G90
G05
M71
T1
X158.496Y-91.44
X158.496Y-94.742
X160.274Y-90.17
X161.29Y-84.455
X162.052Y-90.932
X162.052Y-93.726
X162.56Y-84.455
X162.56Y-98.044
X163.83Y-84.455
X164.338Y-95.758
X165.1Y-84.455
X166.37Y-84.455
X166.624Y-98.298
X168.529Y-92.075
X170.307Y-96.647
X170.434Y-91.948
X171.958Y-90.678
X172.72Y-89.535
X172.72Y-98.044
X173.99Y-84.455
X175.26Y-84.455
X176.53Y-84.455
X177.038Y-90.932
X177.038Y-91.948
X177.292Y-95.504
X181.356Y-96.139
X183.642Y-90.678
X184.15Y-84.455
X185.42Y-84.455
X186.69Y-84.455
X187.452Y-90.678
X187.96Y-84.455
X188.976Y-92.964
X189.23Y-84.455
T2
X162.56Y-78.74
X165.1Y-78.74
X167.64Y-78.74
X182.88Y-78.74
X185.42Y-78.74
X187.96Y-78.74
X190.5Y-91.44
X190.5Y-93.98
X190.5Y-96.52
T3
X160.02Y-97.155
X175.26Y-97.155
T0
M30
