G04 #@! TF.FileFunction,Copper,L1,Top,Signal*
%FSLAX46Y46*%
G04 Gerber Fmt 4.6, Leading zero omitted, Abs format (unit mm)*
G04 Created by KiCad (PCBNEW 0.201510170916+6271~30~ubuntu14.04.1-product) date lun. 26 oct. 2015 23:12:23 CET*
%MOMM*%
G01*
G04 APERTURE LIST*
%ADD10C,0.100000*%
%ADD11R,2.032000X1.727200*%
%ADD12O,2.032000X1.727200*%
%ADD13R,1.501140X1.000760*%
%ADD14R,2.999740X1.998980*%
%ADD15R,1.200000X0.750000*%
%ADD16R,1.727200X2.032000*%
%ADD17O,1.727200X2.032000*%
%ADD18R,1.550000X0.600000*%
%ADD19R,0.900000X1.200000*%
%ADD20R,1.200000X0.900000*%
%ADD21C,3.000000*%
%ADD22C,0.600000*%
%ADD23C,0.250000*%
%ADD24C,0.254000*%
G04 APERTURE END LIST*
D10*
D11*
X190500000Y-96520000D03*
D12*
X190500000Y-93980000D03*
X190500000Y-91440000D03*
D13*
X182806340Y-92224860D03*
X182806340Y-93726000D03*
X182806340Y-95227140D03*
D14*
X185757820Y-93726000D03*
D10*
G36*
X184283350Y-94726760D02*
X183534050Y-94226380D01*
X183534050Y-93225620D01*
X184283350Y-92725240D01*
X184283350Y-94726760D01*
X184283350Y-94726760D01*
G37*
D13*
X180159660Y-95227140D03*
X180159660Y-93726000D03*
X180159660Y-92224860D03*
D14*
X177208180Y-93726000D03*
D10*
G36*
X178682650Y-92725240D02*
X179431950Y-93225620D01*
X179431950Y-94226380D01*
X178682650Y-94726760D01*
X178682650Y-92725240D01*
X178682650Y-92725240D01*
G37*
D15*
X184592000Y-97155000D03*
X182692000Y-97155000D03*
X180274000Y-97155000D03*
X178374000Y-97155000D03*
X170368000Y-90424000D03*
X168468000Y-90424000D03*
X170368000Y-97917000D03*
X168468000Y-97917000D03*
D16*
X167640000Y-78740000D03*
D17*
X165100000Y-78740000D03*
X162560000Y-78740000D03*
D16*
X182880000Y-78740000D03*
D17*
X185420000Y-78740000D03*
X187960000Y-78740000D03*
D18*
X166718000Y-92329000D03*
X166718000Y-93599000D03*
X166718000Y-94869000D03*
X166718000Y-96139000D03*
X172118000Y-96139000D03*
X172118000Y-94869000D03*
X172118000Y-93599000D03*
X172118000Y-92329000D03*
D19*
X158750000Y-85555000D03*
X158750000Y-83355000D03*
X168910000Y-85555000D03*
X168910000Y-83355000D03*
X161290000Y-87460000D03*
X161290000Y-85260000D03*
X165608000Y-85260000D03*
X165608000Y-87460000D03*
D20*
X171280000Y-87630000D03*
X169080000Y-87630000D03*
D19*
X191770000Y-85555000D03*
X191770000Y-83355000D03*
X181610000Y-85555000D03*
X181610000Y-83355000D03*
X188595000Y-87460000D03*
X188595000Y-85260000D03*
X185420000Y-85260000D03*
X185420000Y-87460000D03*
D20*
X179240000Y-87630000D03*
X181440000Y-87630000D03*
D19*
X171450000Y-85555000D03*
X171450000Y-83355000D03*
X179070000Y-85555000D03*
X179070000Y-83355000D03*
D21*
X160020000Y-97155000D03*
X175260000Y-97155000D03*
D22*
X183642000Y-90678000D03*
X187452000Y-90678000D03*
X166624000Y-98298000D03*
X162560000Y-98044000D03*
X158496000Y-94742000D03*
X158496000Y-91440000D03*
X160274000Y-90170000D03*
X162052000Y-90932000D03*
X162052000Y-93726000D03*
X164338000Y-95758000D03*
X172720000Y-98044000D03*
X177292000Y-95504000D03*
X172720000Y-89535000D03*
X176530000Y-84455000D03*
X175260000Y-84455000D03*
X173990000Y-84455000D03*
X161290000Y-84455000D03*
X162560000Y-84455000D03*
X163830000Y-84455000D03*
X165100000Y-84455000D03*
X166370000Y-84455000D03*
X184150000Y-84455000D03*
X189230000Y-84455000D03*
X187960000Y-84455000D03*
X186690000Y-84455000D03*
X185420000Y-84455000D03*
X188976000Y-92964000D03*
X181356000Y-96139000D03*
X170307000Y-96647000D03*
X168529000Y-92075000D03*
X177038000Y-90932000D03*
X171958000Y-90678000D03*
X177038000Y-91948000D03*
X170434000Y-91948000D03*
D23*
X187452000Y-90678000D02*
X183642000Y-90678000D01*
X162814000Y-98298000D02*
X166624000Y-98298000D01*
X162560000Y-98044000D02*
X162814000Y-98298000D01*
X158496000Y-91440000D02*
X158496000Y-94742000D01*
X161290000Y-90170000D02*
X160274000Y-90170000D01*
X162052000Y-90932000D02*
X161290000Y-90170000D01*
X162306000Y-93726000D02*
X162052000Y-93726000D01*
X164338000Y-95758000D02*
X162306000Y-93726000D01*
X168468000Y-90424000D02*
X168468000Y-92014000D01*
X168468000Y-92014000D02*
X168529000Y-92075000D01*
X173990000Y-84455000D02*
X175260000Y-84455000D01*
X165608000Y-85260000D02*
X165608000Y-84963000D01*
X165608000Y-84963000D02*
X165100000Y-84455000D01*
X161290000Y-84455000D02*
X161290000Y-85260000D01*
X163830000Y-84455000D02*
X162560000Y-84455000D01*
X166370000Y-84455000D02*
X165608000Y-85217000D01*
X165608000Y-85217000D02*
X165608000Y-85260000D01*
X185420000Y-85260000D02*
X184955000Y-85260000D01*
X184955000Y-85260000D02*
X184150000Y-84455000D01*
X188595000Y-85260000D02*
X188595000Y-85090000D01*
X188595000Y-85090000D02*
X189230000Y-84455000D01*
X187960000Y-84455000D02*
X186690000Y-84455000D01*
X185420000Y-84455000D02*
X185420000Y-85260000D01*
X190500000Y-93980000D02*
X189992000Y-93980000D01*
X189992000Y-93980000D02*
X188976000Y-92964000D01*
X181356000Y-96139000D02*
X180444140Y-95227140D01*
X180444140Y-95227140D02*
X180159660Y-95227140D01*
X182806340Y-93726000D02*
X185757820Y-93726000D01*
X190246000Y-93726000D02*
X190500000Y-93980000D01*
X180159660Y-95227140D02*
X180743860Y-95227140D01*
X180743860Y-95227140D02*
X181610000Y-94361000D01*
X181864000Y-93726000D02*
X182806340Y-93726000D01*
X181610000Y-93980000D02*
X181864000Y-93726000D01*
X181610000Y-94361000D02*
X181610000Y-93980000D01*
X180274000Y-97155000D02*
X182692000Y-97155000D01*
X180159660Y-95227140D02*
X180159660Y-97040660D01*
X180159660Y-97040660D02*
X180274000Y-97155000D01*
X170368000Y-96708000D02*
X170368000Y-97917000D01*
X170307000Y-96647000D02*
X170368000Y-96708000D01*
X168468000Y-92014000D02*
X168529000Y-92075000D01*
X184592000Y-97155000D02*
X184592000Y-97012800D01*
X184592000Y-97012800D02*
X182806340Y-95227140D01*
X190500000Y-91440000D02*
X188722000Y-91440000D01*
X187198000Y-97155000D02*
X184592000Y-97155000D01*
X188087000Y-96266000D02*
X187198000Y-97155000D01*
X188087000Y-92075000D02*
X188087000Y-96266000D01*
X188722000Y-91440000D02*
X188087000Y-92075000D01*
X180159660Y-93726000D02*
X179057300Y-93726000D01*
X180159660Y-93726000D02*
X177208180Y-93726000D01*
X178374000Y-97155000D02*
X178374000Y-94891820D01*
X178374000Y-94891820D02*
X177208180Y-93726000D01*
X190500000Y-96520000D02*
X190119000Y-96520000D01*
X190119000Y-96520000D02*
X188214000Y-98425000D01*
X188214000Y-98425000D02*
X179644000Y-98425000D01*
X179644000Y-98425000D02*
X178374000Y-97155000D01*
X172118000Y-92329000D02*
X172118000Y-90838000D01*
X172118000Y-90838000D02*
X171958000Y-90678000D01*
X170368000Y-90424000D02*
X171704000Y-90424000D01*
X182806340Y-91366340D02*
X182806340Y-92224860D01*
X182372000Y-90932000D02*
X182806340Y-91366340D01*
X177038000Y-90932000D02*
X182372000Y-90932000D01*
X171704000Y-90424000D02*
X171958000Y-90678000D01*
X168468000Y-97917000D02*
X168468000Y-96139000D01*
X168468000Y-96139000D02*
X168529000Y-96139000D01*
X168849000Y-93533000D02*
X168849000Y-95819000D01*
X179600860Y-92224860D02*
X179324000Y-91948000D01*
X179324000Y-91948000D02*
X177038000Y-91948000D01*
X170434000Y-91948000D02*
X168849000Y-93533000D01*
X168529000Y-96139000D02*
X166718000Y-96139000D01*
X168849000Y-95819000D02*
X168529000Y-96139000D01*
X180159660Y-92224860D02*
X179600860Y-92224860D01*
X170815000Y-78740000D02*
X171450000Y-79375000D01*
X171450000Y-79375000D02*
X171450000Y-83355000D01*
X167640000Y-78740000D02*
X170815000Y-78740000D01*
X168275000Y-81280000D02*
X168910000Y-81915000D01*
X168910000Y-81915000D02*
X168910000Y-83355000D01*
X165100000Y-81280000D02*
X168275000Y-81280000D01*
X165100000Y-78740000D02*
X165100000Y-81280000D01*
X159385000Y-78740000D02*
X158750000Y-79375000D01*
X158750000Y-79375000D02*
X158750000Y-83355000D01*
X162560000Y-78740000D02*
X159385000Y-78740000D01*
X179070000Y-79375000D02*
X179705000Y-78740000D01*
X179705000Y-78740000D02*
X182880000Y-78740000D01*
X179070000Y-83355000D02*
X179070000Y-79375000D01*
X182245000Y-81280000D02*
X181610000Y-81915000D01*
X181610000Y-81915000D02*
X181610000Y-83355000D01*
X185420000Y-81280000D02*
X182245000Y-81280000D01*
X185420000Y-78740000D02*
X185420000Y-81280000D01*
X191135000Y-81280000D02*
X191770000Y-81915000D01*
X191770000Y-81915000D02*
X191770000Y-83355000D01*
X187960000Y-81280000D02*
X191135000Y-81280000D01*
X187960000Y-78740000D02*
X187960000Y-81280000D01*
X166718000Y-94869000D02*
X164973000Y-94869000D01*
X162771000Y-87460000D02*
X161290000Y-87460000D01*
X163195000Y-87884000D02*
X162771000Y-87460000D01*
X163195000Y-93091000D02*
X163195000Y-87884000D01*
X164973000Y-94869000D02*
X163195000Y-93091000D01*
X161290000Y-87460000D02*
X159088000Y-87460000D01*
X158750000Y-87122000D02*
X158750000Y-85555000D01*
X159088000Y-87460000D02*
X158750000Y-87122000D01*
X166718000Y-93599000D02*
X164846000Y-93599000D01*
X164592000Y-88265000D02*
X165397000Y-87460000D01*
X164592000Y-93345000D02*
X164592000Y-88265000D01*
X164846000Y-93599000D02*
X164592000Y-93345000D01*
X165397000Y-87460000D02*
X165608000Y-87460000D01*
X169080000Y-87630000D02*
X165778000Y-87630000D01*
X165778000Y-87630000D02*
X165608000Y-87460000D01*
X168910000Y-85555000D02*
X168910000Y-87460000D01*
X168910000Y-87460000D02*
X169080000Y-87630000D01*
X172118000Y-96139000D02*
X173101000Y-96139000D01*
X173355000Y-95885000D02*
X174498000Y-94742000D01*
X174498000Y-94742000D02*
X174498000Y-91440000D01*
X174498000Y-91440000D02*
X175260000Y-90678000D01*
X175260000Y-90678000D02*
X175768000Y-90678000D01*
X175768000Y-90678000D02*
X176530000Y-89916000D01*
X176530000Y-89916000D02*
X180594000Y-89916000D01*
X180594000Y-89916000D02*
X181102000Y-89408000D01*
X181102000Y-89408000D02*
X186647000Y-89408000D01*
X186647000Y-89408000D02*
X188595000Y-87460000D01*
X173101000Y-96139000D02*
X173355000Y-95885000D01*
X188595000Y-87460000D02*
X191432000Y-87460000D01*
X191770000Y-87122000D02*
X191770000Y-85555000D01*
X191432000Y-87460000D02*
X191770000Y-87122000D01*
X181440000Y-87630000D02*
X185250000Y-87630000D01*
X185250000Y-87630000D02*
X185420000Y-87460000D01*
X181440000Y-87630000D02*
X181440000Y-85725000D01*
X181440000Y-85725000D02*
X181610000Y-85555000D01*
X172118000Y-94869000D02*
X173101000Y-94869000D01*
X173990000Y-93980000D02*
X173355000Y-94615000D01*
X173990000Y-90678000D02*
X173990000Y-93980000D01*
X174752000Y-89916000D02*
X173990000Y-90678000D01*
X175514000Y-89916000D02*
X174752000Y-89916000D01*
X176276000Y-89154000D02*
X175514000Y-89916000D01*
X180340000Y-89154000D02*
X176276000Y-89154000D01*
X180340000Y-89154000D02*
X181440000Y-88054000D01*
X173101000Y-94869000D02*
X173355000Y-94615000D01*
X181440000Y-87630000D02*
X181440000Y-88054000D01*
X172720000Y-94869000D02*
X172118000Y-94869000D01*
X171280000Y-87630000D02*
X171280000Y-85725000D01*
X171280000Y-85725000D02*
X171450000Y-85555000D01*
X166718000Y-92329000D02*
X166845000Y-89695000D01*
X171280000Y-88308000D02*
X171280000Y-87630000D01*
X170307000Y-89281000D02*
X171280000Y-88308000D01*
X167259000Y-89281000D02*
X170307000Y-89281000D01*
X166845000Y-89695000D02*
X167259000Y-89281000D01*
X171130000Y-87630000D02*
X171280000Y-87630000D01*
X179240000Y-87630000D02*
X179240000Y-85725000D01*
X179240000Y-85725000D02*
X179070000Y-85555000D01*
X172118000Y-93599000D02*
X172847000Y-93599000D01*
X172847000Y-93599000D02*
X173482000Y-92964000D01*
X176784000Y-87630000D02*
X179240000Y-87630000D01*
X175260000Y-89154000D02*
X176784000Y-87630000D01*
X174244000Y-89154000D02*
X175260000Y-89154000D01*
X173482000Y-89916000D02*
X174244000Y-89154000D01*
X173482000Y-92710000D02*
X173482000Y-89916000D01*
X173482000Y-92964000D02*
X173482000Y-92710000D01*
X172118000Y-93599000D02*
X172720000Y-93599000D01*
D24*
G36*
X163449000Y-82169000D02*
X159766000Y-82169000D01*
X159716590Y-82179006D01*
X159674965Y-82207447D01*
X159647685Y-82249841D01*
X159639000Y-82296000D01*
X159639000Y-84074000D01*
X158190000Y-84074000D01*
X158190000Y-80391000D01*
X163449000Y-80391000D01*
X163449000Y-82169000D01*
X163449000Y-82169000D01*
G37*
X163449000Y-82169000D02*
X159766000Y-82169000D01*
X159716590Y-82179006D01*
X159674965Y-82207447D01*
X159647685Y-82249841D01*
X159639000Y-82296000D01*
X159639000Y-84074000D01*
X158190000Y-84074000D01*
X158190000Y-80391000D01*
X163449000Y-80391000D01*
X163449000Y-82169000D01*
G36*
X167259000Y-85979000D02*
X160401000Y-85979000D01*
X160401000Y-82931000D01*
X167259000Y-82931000D01*
X167259000Y-85979000D01*
X167259000Y-85979000D01*
G37*
X167259000Y-85979000D02*
X160401000Y-85979000D01*
X160401000Y-82931000D01*
X167259000Y-82931000D01*
X167259000Y-85979000D01*
G36*
X166776400Y-80403440D02*
X168503600Y-80403440D01*
X168569713Y-80391000D01*
X169799000Y-80391000D01*
X169799000Y-84074000D01*
X168021000Y-84074000D01*
X168021000Y-82296000D01*
X168010994Y-82246590D01*
X167982553Y-82204965D01*
X167940159Y-82177685D01*
X167894000Y-82169000D01*
X164211000Y-82169000D01*
X164211000Y-80391000D01*
X166714969Y-80391000D01*
X166776400Y-80403440D01*
X166776400Y-80403440D01*
G37*
X166776400Y-80403440D02*
X168503600Y-80403440D01*
X168569713Y-80391000D01*
X169799000Y-80391000D01*
X169799000Y-84074000D01*
X168021000Y-84074000D01*
X168021000Y-82296000D01*
X168010994Y-82246590D01*
X167982553Y-82204965D01*
X167940159Y-82177685D01*
X167894000Y-82169000D01*
X164211000Y-82169000D01*
X164211000Y-80391000D01*
X166714969Y-80391000D01*
X166776400Y-80403440D01*
G36*
X169799000Y-88519000D02*
X164211000Y-88519000D01*
X164211000Y-86741000D01*
X167894000Y-86741000D01*
X167943410Y-86730994D01*
X167985035Y-86702553D01*
X168012315Y-86660159D01*
X168021000Y-86614000D01*
X168021000Y-84836000D01*
X169799000Y-84836000D01*
X169799000Y-88519000D01*
X169799000Y-88519000D01*
G37*
X169799000Y-88519000D02*
X164211000Y-88519000D01*
X164211000Y-86741000D01*
X167894000Y-86741000D01*
X167943410Y-86730994D01*
X167985035Y-86702553D01*
X168012315Y-86660159D01*
X168021000Y-86614000D01*
X168021000Y-84836000D01*
X169799000Y-84836000D01*
X169799000Y-88519000D01*
G36*
X159639000Y-86614000D02*
X159649006Y-86663410D01*
X159677447Y-86705035D01*
X159719841Y-86732315D01*
X159766000Y-86741000D01*
X163449000Y-86741000D01*
X163449000Y-88519000D01*
X158190000Y-88519000D01*
X158190000Y-84836000D01*
X159639000Y-84836000D01*
X159639000Y-86614000D01*
X159639000Y-86614000D01*
G37*
X159639000Y-86614000D02*
X159649006Y-86663410D01*
X159677447Y-86705035D01*
X159719841Y-86732315D01*
X159766000Y-86741000D01*
X163449000Y-86741000D01*
X163449000Y-88519000D01*
X158190000Y-88519000D01*
X158190000Y-84836000D01*
X159639000Y-84836000D01*
X159639000Y-86614000D01*
G36*
X172339000Y-86614000D02*
X172349006Y-86663410D01*
X172377447Y-86705035D01*
X172419841Y-86732315D01*
X172466000Y-86741000D01*
X174879000Y-86741000D01*
X174879000Y-88519000D01*
X170561000Y-88519000D01*
X170561000Y-84836000D01*
X172339000Y-84836000D01*
X172339000Y-86614000D01*
X172339000Y-86614000D01*
G37*
X172339000Y-86614000D02*
X172349006Y-86663410D01*
X172377447Y-86705035D01*
X172419841Y-86732315D01*
X172466000Y-86741000D01*
X174879000Y-86741000D01*
X174879000Y-88519000D01*
X170561000Y-88519000D01*
X170561000Y-84836000D01*
X172339000Y-84836000D01*
X172339000Y-86614000D01*
G36*
X174879000Y-82169000D02*
X172466000Y-82169000D01*
X172416590Y-82179006D01*
X172374965Y-82207447D01*
X172347685Y-82249841D01*
X172339000Y-82296000D01*
X172339000Y-84074000D01*
X170561000Y-84074000D01*
X170561000Y-80391000D01*
X174879000Y-80391000D01*
X174879000Y-82169000D01*
X174879000Y-82169000D01*
G37*
X174879000Y-82169000D02*
X172466000Y-82169000D01*
X172416590Y-82179006D01*
X172374965Y-82207447D01*
X172347685Y-82249841D01*
X172339000Y-82296000D01*
X172339000Y-84074000D01*
X170561000Y-84074000D01*
X170561000Y-80391000D01*
X174879000Y-80391000D01*
X174879000Y-82169000D01*
G36*
X177419000Y-85979000D02*
X173101000Y-85979000D01*
X173101000Y-82931000D01*
X177419000Y-82931000D01*
X177419000Y-85979000D01*
X177419000Y-85979000D01*
G37*
X177419000Y-85979000D02*
X173101000Y-85979000D01*
X173101000Y-82931000D01*
X177419000Y-82931000D01*
X177419000Y-85979000D01*
G36*
X190119000Y-85979000D02*
X183261000Y-85979000D01*
X183261000Y-82931000D01*
X190119000Y-82931000D01*
X190119000Y-85979000D01*
X190119000Y-85979000D01*
G37*
X190119000Y-85979000D02*
X183261000Y-85979000D01*
X183261000Y-82931000D01*
X190119000Y-82931000D01*
X190119000Y-85979000D01*
G36*
X192330000Y-88519000D02*
X187071000Y-88519000D01*
X187071000Y-86741000D01*
X190754000Y-86741000D01*
X190803410Y-86730994D01*
X190845035Y-86702553D01*
X190872315Y-86660159D01*
X190881000Y-86614000D01*
X190881000Y-84836000D01*
X192330000Y-84836000D01*
X192330000Y-88519000D01*
X192330000Y-88519000D01*
G37*
X192330000Y-88519000D02*
X187071000Y-88519000D01*
X187071000Y-86741000D01*
X190754000Y-86741000D01*
X190803410Y-86730994D01*
X190845035Y-86702553D01*
X190872315Y-86660159D01*
X190881000Y-86614000D01*
X190881000Y-84836000D01*
X192330000Y-84836000D01*
X192330000Y-88519000D01*
G36*
X182499000Y-86614000D02*
X182509006Y-86663410D01*
X182537447Y-86705035D01*
X182579841Y-86732315D01*
X182626000Y-86741000D01*
X186309000Y-86741000D01*
X186309000Y-88519000D01*
X180721000Y-88519000D01*
X180721000Y-84836000D01*
X182499000Y-84836000D01*
X182499000Y-86614000D01*
X182499000Y-86614000D01*
G37*
X182499000Y-86614000D02*
X182509006Y-86663410D01*
X182537447Y-86705035D01*
X182579841Y-86732315D01*
X182626000Y-86741000D01*
X186309000Y-86741000D01*
X186309000Y-88519000D01*
X180721000Y-88519000D01*
X180721000Y-84836000D01*
X182499000Y-84836000D01*
X182499000Y-86614000D01*
G36*
X192330000Y-84074000D02*
X190881000Y-84074000D01*
X190881000Y-82296000D01*
X190870994Y-82246590D01*
X190842553Y-82204965D01*
X190800159Y-82177685D01*
X190754000Y-82169000D01*
X187071000Y-82169000D01*
X187071000Y-80391000D01*
X192330000Y-80391000D01*
X192330000Y-84074000D01*
X192330000Y-84074000D01*
G37*
X192330000Y-84074000D02*
X190881000Y-84074000D01*
X190881000Y-82296000D01*
X190870994Y-82246590D01*
X190842553Y-82204965D01*
X190800159Y-82177685D01*
X190754000Y-82169000D01*
X187071000Y-82169000D01*
X187071000Y-80391000D01*
X192330000Y-80391000D01*
X192330000Y-84074000D01*
G36*
X182016400Y-80403440D02*
X183743600Y-80403440D01*
X183809713Y-80391000D01*
X186309000Y-80391000D01*
X186309000Y-82169000D01*
X182626000Y-82169000D01*
X182576590Y-82179006D01*
X182534965Y-82207447D01*
X182507685Y-82249841D01*
X182499000Y-82296000D01*
X182499000Y-84074000D01*
X180721000Y-84074000D01*
X180721000Y-80391000D01*
X181954969Y-80391000D01*
X182016400Y-80403440D01*
X182016400Y-80403440D01*
G37*
X182016400Y-80403440D02*
X183743600Y-80403440D01*
X183809713Y-80391000D01*
X186309000Y-80391000D01*
X186309000Y-82169000D01*
X182626000Y-82169000D01*
X182576590Y-82179006D01*
X182534965Y-82207447D01*
X182507685Y-82249841D01*
X182499000Y-82296000D01*
X182499000Y-84074000D01*
X180721000Y-84074000D01*
X180721000Y-80391000D01*
X181954969Y-80391000D01*
X182016400Y-80403440D01*
G36*
X179959000Y-84074000D02*
X178181000Y-84074000D01*
X178181000Y-82296000D01*
X178170994Y-82246590D01*
X178142553Y-82204965D01*
X178100159Y-82177685D01*
X178054000Y-82169000D01*
X175641000Y-82169000D01*
X175641000Y-80391000D01*
X179959000Y-80391000D01*
X179959000Y-84074000D01*
X179959000Y-84074000D01*
G37*
X179959000Y-84074000D02*
X178181000Y-84074000D01*
X178181000Y-82296000D01*
X178170994Y-82246590D01*
X178142553Y-82204965D01*
X178100159Y-82177685D01*
X178054000Y-82169000D01*
X175641000Y-82169000D01*
X175641000Y-80391000D01*
X179959000Y-80391000D01*
X179959000Y-84074000D01*
G36*
X179959000Y-88519000D02*
X175641000Y-88519000D01*
X175641000Y-86741000D01*
X178054000Y-86741000D01*
X178103410Y-86730994D01*
X178145035Y-86702553D01*
X178172315Y-86660159D01*
X178181000Y-86614000D01*
X178181000Y-84836000D01*
X179959000Y-84836000D01*
X179959000Y-88519000D01*
X179959000Y-88519000D01*
G37*
X179959000Y-88519000D02*
X175641000Y-88519000D01*
X175641000Y-86741000D01*
X178054000Y-86741000D01*
X178103410Y-86730994D01*
X178145035Y-86702553D01*
X178172315Y-86660159D01*
X178181000Y-86614000D01*
X178181000Y-84836000D01*
X179959000Y-84836000D01*
X179959000Y-88519000D01*
G36*
X171009594Y-92629000D02*
X171032395Y-92750179D01*
X171104012Y-92861474D01*
X171213286Y-92936138D01*
X171343000Y-92962406D01*
X172844370Y-92962406D01*
X172841182Y-92965594D01*
X171343000Y-92965594D01*
X171221821Y-92988395D01*
X171110526Y-93060012D01*
X171035862Y-93169286D01*
X171009594Y-93299000D01*
X171009594Y-93899000D01*
X171032395Y-94020179D01*
X171104012Y-94131474D01*
X171213286Y-94206138D01*
X171343000Y-94232406D01*
X172893000Y-94232406D01*
X173014179Y-94209605D01*
X173125474Y-94137988D01*
X173200138Y-94028714D01*
X173226406Y-93899000D01*
X173226406Y-93858818D01*
X173538000Y-93547225D01*
X173538000Y-93792775D01*
X173050161Y-94280615D01*
X173022714Y-94261862D01*
X172893000Y-94235594D01*
X171343000Y-94235594D01*
X171221821Y-94258395D01*
X171110526Y-94330012D01*
X171035862Y-94439286D01*
X171009594Y-94569000D01*
X171009594Y-95169000D01*
X171032395Y-95290179D01*
X171104012Y-95401474D01*
X171213286Y-95476138D01*
X171343000Y-95502406D01*
X172893000Y-95502406D01*
X173014179Y-95479605D01*
X173125474Y-95407988D01*
X173198109Y-95301684D01*
X173273973Y-95286594D01*
X173395152Y-95205624D01*
X173050161Y-95550615D01*
X173022714Y-95531862D01*
X172893000Y-95505594D01*
X171343000Y-95505594D01*
X171221821Y-95528395D01*
X171110526Y-95600012D01*
X171035862Y-95709286D01*
X171009594Y-95839000D01*
X171009594Y-96439000D01*
X171032395Y-96560179D01*
X171104012Y-96671474D01*
X171213286Y-96746138D01*
X171343000Y-96772406D01*
X172893000Y-96772406D01*
X173014179Y-96749605D01*
X173125474Y-96677988D01*
X173198109Y-96571684D01*
X173273973Y-96556594D01*
X173420612Y-96458612D01*
X173677651Y-96201573D01*
X173433318Y-96789993D01*
X173432684Y-97516818D01*
X173710242Y-98188560D01*
X174223736Y-98702952D01*
X174356306Y-98758000D01*
X171400025Y-98758000D01*
X171506327Y-98651699D01*
X171603000Y-98418310D01*
X171603000Y-98202750D01*
X171444250Y-98044000D01*
X170495000Y-98044000D01*
X170495000Y-98064000D01*
X170241000Y-98064000D01*
X170241000Y-98044000D01*
X170221000Y-98044000D01*
X170221000Y-97790000D01*
X170241000Y-97790000D01*
X170241000Y-97065750D01*
X170495000Y-97065750D01*
X170495000Y-97790000D01*
X171444250Y-97790000D01*
X171603000Y-97631250D01*
X171603000Y-97415690D01*
X171506327Y-97182301D01*
X171327698Y-97003673D01*
X171094309Y-96907000D01*
X170653750Y-96907000D01*
X170495000Y-97065750D01*
X170241000Y-97065750D01*
X170082250Y-96907000D01*
X169641691Y-96907000D01*
X169408302Y-97003673D01*
X169229673Y-97182301D01*
X169205654Y-97240287D01*
X169197714Y-97234862D01*
X169068000Y-97208594D01*
X168920000Y-97208594D01*
X168920000Y-96387224D01*
X169168612Y-96138613D01*
X169266594Y-95991973D01*
X169275661Y-95946388D01*
X169301000Y-95819000D01*
X169301000Y-93720224D01*
X170446214Y-92575011D01*
X170558171Y-92575109D01*
X170788703Y-92479855D01*
X170965235Y-92303631D01*
X171009594Y-92196802D01*
X171009594Y-92629000D01*
X171009594Y-92629000D01*
G37*
X171009594Y-92629000D02*
X171032395Y-92750179D01*
X171104012Y-92861474D01*
X171213286Y-92936138D01*
X171343000Y-92962406D01*
X172844370Y-92962406D01*
X172841182Y-92965594D01*
X171343000Y-92965594D01*
X171221821Y-92988395D01*
X171110526Y-93060012D01*
X171035862Y-93169286D01*
X171009594Y-93299000D01*
X171009594Y-93899000D01*
X171032395Y-94020179D01*
X171104012Y-94131474D01*
X171213286Y-94206138D01*
X171343000Y-94232406D01*
X172893000Y-94232406D01*
X173014179Y-94209605D01*
X173125474Y-94137988D01*
X173200138Y-94028714D01*
X173226406Y-93899000D01*
X173226406Y-93858818D01*
X173538000Y-93547225D01*
X173538000Y-93792775D01*
X173050161Y-94280615D01*
X173022714Y-94261862D01*
X172893000Y-94235594D01*
X171343000Y-94235594D01*
X171221821Y-94258395D01*
X171110526Y-94330012D01*
X171035862Y-94439286D01*
X171009594Y-94569000D01*
X171009594Y-95169000D01*
X171032395Y-95290179D01*
X171104012Y-95401474D01*
X171213286Y-95476138D01*
X171343000Y-95502406D01*
X172893000Y-95502406D01*
X173014179Y-95479605D01*
X173125474Y-95407988D01*
X173198109Y-95301684D01*
X173273973Y-95286594D01*
X173395152Y-95205624D01*
X173050161Y-95550615D01*
X173022714Y-95531862D01*
X172893000Y-95505594D01*
X171343000Y-95505594D01*
X171221821Y-95528395D01*
X171110526Y-95600012D01*
X171035862Y-95709286D01*
X171009594Y-95839000D01*
X171009594Y-96439000D01*
X171032395Y-96560179D01*
X171104012Y-96671474D01*
X171213286Y-96746138D01*
X171343000Y-96772406D01*
X172893000Y-96772406D01*
X173014179Y-96749605D01*
X173125474Y-96677988D01*
X173198109Y-96571684D01*
X173273973Y-96556594D01*
X173420612Y-96458612D01*
X173677651Y-96201573D01*
X173433318Y-96789993D01*
X173432684Y-97516818D01*
X173710242Y-98188560D01*
X174223736Y-98702952D01*
X174356306Y-98758000D01*
X171400025Y-98758000D01*
X171506327Y-98651699D01*
X171603000Y-98418310D01*
X171603000Y-98202750D01*
X171444250Y-98044000D01*
X170495000Y-98044000D01*
X170495000Y-98064000D01*
X170241000Y-98064000D01*
X170241000Y-98044000D01*
X170221000Y-98044000D01*
X170221000Y-97790000D01*
X170241000Y-97790000D01*
X170241000Y-97065750D01*
X170495000Y-97065750D01*
X170495000Y-97790000D01*
X171444250Y-97790000D01*
X171603000Y-97631250D01*
X171603000Y-97415690D01*
X171506327Y-97182301D01*
X171327698Y-97003673D01*
X171094309Y-96907000D01*
X170653750Y-96907000D01*
X170495000Y-97065750D01*
X170241000Y-97065750D01*
X170082250Y-96907000D01*
X169641691Y-96907000D01*
X169408302Y-97003673D01*
X169229673Y-97182301D01*
X169205654Y-97240287D01*
X169197714Y-97234862D01*
X169068000Y-97208594D01*
X168920000Y-97208594D01*
X168920000Y-96387224D01*
X169168612Y-96138613D01*
X169266594Y-95991973D01*
X169275661Y-95946388D01*
X169301000Y-95819000D01*
X169301000Y-93720224D01*
X170446214Y-92575011D01*
X170558171Y-92575109D01*
X170788703Y-92479855D01*
X170965235Y-92303631D01*
X171009594Y-92196802D01*
X171009594Y-92629000D01*
G36*
X192738000Y-98758000D02*
X188513576Y-98758000D01*
X188533612Y-98744612D01*
X189561218Y-97717006D01*
X191516000Y-97717006D01*
X191637179Y-97694205D01*
X191748474Y-97622588D01*
X191823138Y-97513314D01*
X191849406Y-97383600D01*
X191849406Y-95656400D01*
X191826605Y-95535221D01*
X191754988Y-95423926D01*
X191645714Y-95349262D01*
X191516000Y-95322994D01*
X191268407Y-95322994D01*
X191414320Y-95271954D01*
X191850732Y-94882036D01*
X192104709Y-94354791D01*
X192107358Y-94339026D01*
X191986217Y-94107000D01*
X190627000Y-94107000D01*
X190627000Y-94127000D01*
X190373000Y-94127000D01*
X190373000Y-94107000D01*
X189013783Y-94107000D01*
X188892642Y-94339026D01*
X188895291Y-94354791D01*
X189149268Y-94882036D01*
X189585680Y-95271954D01*
X189731593Y-95322994D01*
X189484000Y-95322994D01*
X189362821Y-95345795D01*
X189251526Y-95417412D01*
X189176862Y-95526686D01*
X189150594Y-95656400D01*
X189150594Y-96849182D01*
X188026776Y-97973000D01*
X183747026Y-97973000D01*
X183830327Y-97889699D01*
X183854346Y-97831713D01*
X183862286Y-97837138D01*
X183992000Y-97863406D01*
X185192000Y-97863406D01*
X185313179Y-97840605D01*
X185424474Y-97768988D01*
X185499138Y-97659714D01*
X185509813Y-97607000D01*
X187198000Y-97607000D01*
X187370973Y-97572594D01*
X187517612Y-97474612D01*
X188406612Y-96585612D01*
X188504594Y-96438973D01*
X188539000Y-96266000D01*
X188539000Y-92262224D01*
X188909225Y-91892000D01*
X189220597Y-91892000D01*
X189221318Y-91895623D01*
X189479408Y-92281881D01*
X189865666Y-92539971D01*
X189957039Y-92558146D01*
X189585680Y-92688046D01*
X189149268Y-93077964D01*
X188895291Y-93605209D01*
X188892642Y-93620974D01*
X189013783Y-93853000D01*
X190373000Y-93853000D01*
X190373000Y-93833000D01*
X190627000Y-93833000D01*
X190627000Y-93853000D01*
X191986217Y-93853000D01*
X192107358Y-93620974D01*
X192104709Y-93605209D01*
X191850732Y-93077964D01*
X191414320Y-92688046D01*
X191042961Y-92558146D01*
X191134334Y-92539971D01*
X191520592Y-92281881D01*
X191778682Y-91895623D01*
X191869311Y-91440000D01*
X191778682Y-90984377D01*
X191520592Y-90598119D01*
X191134334Y-90340029D01*
X190678711Y-90249400D01*
X190321289Y-90249400D01*
X189865666Y-90340029D01*
X189479408Y-90598119D01*
X189221318Y-90984377D01*
X189220597Y-90988000D01*
X188722000Y-90988000D01*
X188549027Y-91022406D01*
X188402388Y-91120387D01*
X187767388Y-91755388D01*
X187669406Y-91902027D01*
X187635000Y-92075000D01*
X187635000Y-92205794D01*
X187617389Y-92188183D01*
X187384000Y-92091510D01*
X186043570Y-92091510D01*
X185884820Y-92250260D01*
X185884820Y-93599000D01*
X185904820Y-93599000D01*
X185904820Y-93853000D01*
X185884820Y-93853000D01*
X185884820Y-95201740D01*
X186043570Y-95360490D01*
X187384000Y-95360490D01*
X187617389Y-95263817D01*
X187635000Y-95246206D01*
X187635000Y-96078776D01*
X187010776Y-96703000D01*
X185510918Y-96703000D01*
X185502605Y-96658821D01*
X185430988Y-96547526D01*
X185321714Y-96472862D01*
X185192000Y-96446594D01*
X184665019Y-96446594D01*
X183890316Y-95671892D01*
X183890316Y-95255882D01*
X183898251Y-95263817D01*
X184131640Y-95360490D01*
X184223174Y-95360490D01*
X184265463Y-95373953D01*
X184342883Y-95360490D01*
X185472070Y-95360490D01*
X185630820Y-95201740D01*
X185630820Y-93853000D01*
X182886610Y-93853000D01*
X182886610Y-93873000D01*
X182679340Y-93873000D01*
X182679340Y-93853000D01*
X181579520Y-93853000D01*
X181420770Y-94011750D01*
X181420770Y-94339275D01*
X181269929Y-94188433D01*
X181243636Y-94177542D01*
X181243636Y-93225620D01*
X181220835Y-93104441D01*
X181149218Y-92993146D01*
X181124263Y-92976095D01*
X181142704Y-92964228D01*
X181217368Y-92854954D01*
X181243636Y-92725240D01*
X181243636Y-91724480D01*
X181220835Y-91603301D01*
X181149218Y-91492006D01*
X181039944Y-91417342D01*
X180910230Y-91391074D01*
X179409090Y-91391074D01*
X179287911Y-91413875D01*
X179176616Y-91485492D01*
X179169436Y-91496000D01*
X177472728Y-91496000D01*
X177416713Y-91439887D01*
X177472698Y-91384000D01*
X182184776Y-91384000D01*
X182191850Y-91391074D01*
X182055770Y-91391074D01*
X181934591Y-91413875D01*
X181823296Y-91485492D01*
X181748632Y-91594766D01*
X181722364Y-91724480D01*
X181722364Y-92676402D01*
X181696071Y-92687293D01*
X181517443Y-92865922D01*
X181420770Y-93099311D01*
X181420770Y-93440250D01*
X181579520Y-93599000D01*
X182679340Y-93599000D01*
X182679340Y-93579000D01*
X182886610Y-93579000D01*
X182886610Y-93599000D01*
X185630820Y-93599000D01*
X185630820Y-92250260D01*
X185472070Y-92091510D01*
X184364761Y-92091510D01*
X184161598Y-92089351D01*
X184156330Y-92091510D01*
X184131640Y-92091510D01*
X183898251Y-92188183D01*
X183890316Y-92196118D01*
X183890316Y-91724480D01*
X183867515Y-91603301D01*
X183795898Y-91492006D01*
X183686624Y-91417342D01*
X183556910Y-91391074D01*
X183258340Y-91391074D01*
X183258340Y-91366340D01*
X183223934Y-91193367D01*
X183125953Y-91046728D01*
X182691612Y-90612388D01*
X182544973Y-90514406D01*
X182372000Y-90480000D01*
X177472728Y-90480000D01*
X177393631Y-90400765D01*
X177314724Y-90368000D01*
X180594000Y-90368000D01*
X180766973Y-90333594D01*
X180913612Y-90235612D01*
X181289225Y-89860000D01*
X186647000Y-89860000D01*
X186819973Y-89825594D01*
X186966612Y-89727612D01*
X187413224Y-89281000D01*
X192738000Y-89281000D01*
X192738000Y-98758000D01*
X192738000Y-98758000D01*
G37*
X192738000Y-98758000D02*
X188513576Y-98758000D01*
X188533612Y-98744612D01*
X189561218Y-97717006D01*
X191516000Y-97717006D01*
X191637179Y-97694205D01*
X191748474Y-97622588D01*
X191823138Y-97513314D01*
X191849406Y-97383600D01*
X191849406Y-95656400D01*
X191826605Y-95535221D01*
X191754988Y-95423926D01*
X191645714Y-95349262D01*
X191516000Y-95322994D01*
X191268407Y-95322994D01*
X191414320Y-95271954D01*
X191850732Y-94882036D01*
X192104709Y-94354791D01*
X192107358Y-94339026D01*
X191986217Y-94107000D01*
X190627000Y-94107000D01*
X190627000Y-94127000D01*
X190373000Y-94127000D01*
X190373000Y-94107000D01*
X189013783Y-94107000D01*
X188892642Y-94339026D01*
X188895291Y-94354791D01*
X189149268Y-94882036D01*
X189585680Y-95271954D01*
X189731593Y-95322994D01*
X189484000Y-95322994D01*
X189362821Y-95345795D01*
X189251526Y-95417412D01*
X189176862Y-95526686D01*
X189150594Y-95656400D01*
X189150594Y-96849182D01*
X188026776Y-97973000D01*
X183747026Y-97973000D01*
X183830327Y-97889699D01*
X183854346Y-97831713D01*
X183862286Y-97837138D01*
X183992000Y-97863406D01*
X185192000Y-97863406D01*
X185313179Y-97840605D01*
X185424474Y-97768988D01*
X185499138Y-97659714D01*
X185509813Y-97607000D01*
X187198000Y-97607000D01*
X187370973Y-97572594D01*
X187517612Y-97474612D01*
X188406612Y-96585612D01*
X188504594Y-96438973D01*
X188539000Y-96266000D01*
X188539000Y-92262224D01*
X188909225Y-91892000D01*
X189220597Y-91892000D01*
X189221318Y-91895623D01*
X189479408Y-92281881D01*
X189865666Y-92539971D01*
X189957039Y-92558146D01*
X189585680Y-92688046D01*
X189149268Y-93077964D01*
X188895291Y-93605209D01*
X188892642Y-93620974D01*
X189013783Y-93853000D01*
X190373000Y-93853000D01*
X190373000Y-93833000D01*
X190627000Y-93833000D01*
X190627000Y-93853000D01*
X191986217Y-93853000D01*
X192107358Y-93620974D01*
X192104709Y-93605209D01*
X191850732Y-93077964D01*
X191414320Y-92688046D01*
X191042961Y-92558146D01*
X191134334Y-92539971D01*
X191520592Y-92281881D01*
X191778682Y-91895623D01*
X191869311Y-91440000D01*
X191778682Y-90984377D01*
X191520592Y-90598119D01*
X191134334Y-90340029D01*
X190678711Y-90249400D01*
X190321289Y-90249400D01*
X189865666Y-90340029D01*
X189479408Y-90598119D01*
X189221318Y-90984377D01*
X189220597Y-90988000D01*
X188722000Y-90988000D01*
X188549027Y-91022406D01*
X188402388Y-91120387D01*
X187767388Y-91755388D01*
X187669406Y-91902027D01*
X187635000Y-92075000D01*
X187635000Y-92205794D01*
X187617389Y-92188183D01*
X187384000Y-92091510D01*
X186043570Y-92091510D01*
X185884820Y-92250260D01*
X185884820Y-93599000D01*
X185904820Y-93599000D01*
X185904820Y-93853000D01*
X185884820Y-93853000D01*
X185884820Y-95201740D01*
X186043570Y-95360490D01*
X187384000Y-95360490D01*
X187617389Y-95263817D01*
X187635000Y-95246206D01*
X187635000Y-96078776D01*
X187010776Y-96703000D01*
X185510918Y-96703000D01*
X185502605Y-96658821D01*
X185430988Y-96547526D01*
X185321714Y-96472862D01*
X185192000Y-96446594D01*
X184665019Y-96446594D01*
X183890316Y-95671892D01*
X183890316Y-95255882D01*
X183898251Y-95263817D01*
X184131640Y-95360490D01*
X184223174Y-95360490D01*
X184265463Y-95373953D01*
X184342883Y-95360490D01*
X185472070Y-95360490D01*
X185630820Y-95201740D01*
X185630820Y-93853000D01*
X182886610Y-93853000D01*
X182886610Y-93873000D01*
X182679340Y-93873000D01*
X182679340Y-93853000D01*
X181579520Y-93853000D01*
X181420770Y-94011750D01*
X181420770Y-94339275D01*
X181269929Y-94188433D01*
X181243636Y-94177542D01*
X181243636Y-93225620D01*
X181220835Y-93104441D01*
X181149218Y-92993146D01*
X181124263Y-92976095D01*
X181142704Y-92964228D01*
X181217368Y-92854954D01*
X181243636Y-92725240D01*
X181243636Y-91724480D01*
X181220835Y-91603301D01*
X181149218Y-91492006D01*
X181039944Y-91417342D01*
X180910230Y-91391074D01*
X179409090Y-91391074D01*
X179287911Y-91413875D01*
X179176616Y-91485492D01*
X179169436Y-91496000D01*
X177472728Y-91496000D01*
X177416713Y-91439887D01*
X177472698Y-91384000D01*
X182184776Y-91384000D01*
X182191850Y-91391074D01*
X182055770Y-91391074D01*
X181934591Y-91413875D01*
X181823296Y-91485492D01*
X181748632Y-91594766D01*
X181722364Y-91724480D01*
X181722364Y-92676402D01*
X181696071Y-92687293D01*
X181517443Y-92865922D01*
X181420770Y-93099311D01*
X181420770Y-93440250D01*
X181579520Y-93599000D01*
X182679340Y-93599000D01*
X182679340Y-93579000D01*
X182886610Y-93579000D01*
X182886610Y-93599000D01*
X185630820Y-93599000D01*
X185630820Y-92250260D01*
X185472070Y-92091510D01*
X184364761Y-92091510D01*
X184161598Y-92089351D01*
X184156330Y-92091510D01*
X184131640Y-92091510D01*
X183898251Y-92188183D01*
X183890316Y-92196118D01*
X183890316Y-91724480D01*
X183867515Y-91603301D01*
X183795898Y-91492006D01*
X183686624Y-91417342D01*
X183556910Y-91391074D01*
X183258340Y-91391074D01*
X183258340Y-91366340D01*
X183223934Y-91193367D01*
X183125953Y-91046728D01*
X182691612Y-90612388D01*
X182544973Y-90514406D01*
X182372000Y-90480000D01*
X177472728Y-90480000D01*
X177393631Y-90400765D01*
X177314724Y-90368000D01*
X180594000Y-90368000D01*
X180766973Y-90333594D01*
X180913612Y-90235612D01*
X181289225Y-89860000D01*
X186647000Y-89860000D01*
X186819973Y-89825594D01*
X186966612Y-89727612D01*
X187413224Y-89281000D01*
X192738000Y-89281000D01*
X192738000Y-98758000D01*
G36*
X162743000Y-93091000D02*
X162777406Y-93263973D01*
X162875388Y-93410612D01*
X164653388Y-95188612D01*
X164800027Y-95286594D01*
X164973000Y-95321000D01*
X165652228Y-95321000D01*
X165704012Y-95401474D01*
X165813286Y-95476138D01*
X165943000Y-95502406D01*
X167493000Y-95502406D01*
X167614179Y-95479605D01*
X167725474Y-95407988D01*
X167800138Y-95298714D01*
X167826406Y-95169000D01*
X167826406Y-94569000D01*
X167803605Y-94447821D01*
X167731988Y-94336526D01*
X167622714Y-94261862D01*
X167493000Y-94235594D01*
X165943000Y-94235594D01*
X165821821Y-94258395D01*
X165710526Y-94330012D01*
X165651089Y-94417000D01*
X165160224Y-94417000D01*
X164781368Y-94038144D01*
X164846000Y-94051000D01*
X165652228Y-94051000D01*
X165704012Y-94131474D01*
X165813286Y-94206138D01*
X165943000Y-94232406D01*
X167493000Y-94232406D01*
X167614179Y-94209605D01*
X167725474Y-94137988D01*
X167800138Y-94028714D01*
X167826406Y-93899000D01*
X167826406Y-93299000D01*
X167803605Y-93177821D01*
X167731988Y-93066526D01*
X167622714Y-92991862D01*
X167493000Y-92965594D01*
X165943000Y-92965594D01*
X165821821Y-92988395D01*
X165710526Y-93060012D01*
X165651089Y-93147000D01*
X165044000Y-93147000D01*
X165044000Y-89281000D01*
X166619776Y-89281000D01*
X166525388Y-89375388D01*
X166482336Y-89439819D01*
X166436221Y-89502116D01*
X166433545Y-89512839D01*
X166427406Y-89522027D01*
X166412288Y-89598034D01*
X166393524Y-89673232D01*
X166296015Y-91695594D01*
X165943000Y-91695594D01*
X165821821Y-91718395D01*
X165710526Y-91790012D01*
X165635862Y-91899286D01*
X165609594Y-92029000D01*
X165609594Y-92629000D01*
X165632395Y-92750179D01*
X165704012Y-92861474D01*
X165813286Y-92936138D01*
X165943000Y-92962406D01*
X167493000Y-92962406D01*
X167614179Y-92939605D01*
X167725474Y-92867988D01*
X167800138Y-92758714D01*
X167826406Y-92629000D01*
X167826406Y-92029000D01*
X167803605Y-91907821D01*
X167731988Y-91796526D01*
X167622714Y-91721862D01*
X167493000Y-91695594D01*
X167201066Y-91695594D01*
X167237663Y-90936567D01*
X167329673Y-91158699D01*
X167508302Y-91337327D01*
X167741691Y-91434000D01*
X168182250Y-91434000D01*
X168341000Y-91275250D01*
X168341000Y-90551000D01*
X168321000Y-90551000D01*
X168321000Y-90297000D01*
X168341000Y-90297000D01*
X168341000Y-90277000D01*
X168595000Y-90277000D01*
X168595000Y-90297000D01*
X168615000Y-90297000D01*
X168615000Y-90551000D01*
X168595000Y-90551000D01*
X168595000Y-91275250D01*
X168753750Y-91434000D01*
X169194309Y-91434000D01*
X169427698Y-91337327D01*
X169606327Y-91158699D01*
X169630346Y-91100713D01*
X169638286Y-91106138D01*
X169768000Y-91132406D01*
X170968000Y-91132406D01*
X171089179Y-91109605D01*
X171200474Y-91037988D01*
X171275138Y-90928714D01*
X171285813Y-90876000D01*
X171361397Y-90876000D01*
X171426145Y-91032703D01*
X171602369Y-91209235D01*
X171666000Y-91235657D01*
X171666000Y-91695594D01*
X171343000Y-91695594D01*
X171221821Y-91718395D01*
X171110526Y-91790012D01*
X171061075Y-91862385D01*
X171061109Y-91823829D01*
X170965855Y-91593297D01*
X170789631Y-91416765D01*
X170559265Y-91321109D01*
X170309829Y-91320891D01*
X170079297Y-91416145D01*
X169902765Y-91592369D01*
X169807109Y-91822735D01*
X169807010Y-91935765D01*
X168529388Y-93213388D01*
X168431406Y-93360027D01*
X168397000Y-93533000D01*
X168397000Y-95631775D01*
X168341776Y-95687000D01*
X167783772Y-95687000D01*
X167731988Y-95606526D01*
X167622714Y-95531862D01*
X167493000Y-95505594D01*
X165943000Y-95505594D01*
X165821821Y-95528395D01*
X165710526Y-95600012D01*
X165635862Y-95709286D01*
X165609594Y-95839000D01*
X165609594Y-96439000D01*
X165632395Y-96560179D01*
X165704012Y-96671474D01*
X165813286Y-96746138D01*
X165943000Y-96772406D01*
X167493000Y-96772406D01*
X167614179Y-96749605D01*
X167725474Y-96677988D01*
X167784911Y-96591000D01*
X168016000Y-96591000D01*
X168016000Y-97208594D01*
X167868000Y-97208594D01*
X167746821Y-97231395D01*
X167635526Y-97303012D01*
X167560862Y-97412286D01*
X167534594Y-97542000D01*
X167534594Y-98292000D01*
X167557395Y-98413179D01*
X167629012Y-98524474D01*
X167738286Y-98599138D01*
X167868000Y-98625406D01*
X169068000Y-98625406D01*
X169189179Y-98602605D01*
X169205095Y-98592363D01*
X169229673Y-98651699D01*
X169335975Y-98758000D01*
X160924704Y-98758000D01*
X161053560Y-98704758D01*
X161567952Y-98191264D01*
X161846682Y-97520007D01*
X161847316Y-96793182D01*
X161569758Y-96121440D01*
X161056264Y-95607048D01*
X160385007Y-95328318D01*
X159658182Y-95327684D01*
X158986440Y-95605242D01*
X158472048Y-96118736D01*
X158193318Y-96789993D01*
X158192684Y-97516818D01*
X158470242Y-98188560D01*
X158983736Y-98702952D01*
X159116306Y-98758000D01*
X157782000Y-98758000D01*
X157782000Y-89281000D01*
X162743000Y-89281000D01*
X162743000Y-93091000D01*
X162743000Y-93091000D01*
G37*
X162743000Y-93091000D02*
X162777406Y-93263973D01*
X162875388Y-93410612D01*
X164653388Y-95188612D01*
X164800027Y-95286594D01*
X164973000Y-95321000D01*
X165652228Y-95321000D01*
X165704012Y-95401474D01*
X165813286Y-95476138D01*
X165943000Y-95502406D01*
X167493000Y-95502406D01*
X167614179Y-95479605D01*
X167725474Y-95407988D01*
X167800138Y-95298714D01*
X167826406Y-95169000D01*
X167826406Y-94569000D01*
X167803605Y-94447821D01*
X167731988Y-94336526D01*
X167622714Y-94261862D01*
X167493000Y-94235594D01*
X165943000Y-94235594D01*
X165821821Y-94258395D01*
X165710526Y-94330012D01*
X165651089Y-94417000D01*
X165160224Y-94417000D01*
X164781368Y-94038144D01*
X164846000Y-94051000D01*
X165652228Y-94051000D01*
X165704012Y-94131474D01*
X165813286Y-94206138D01*
X165943000Y-94232406D01*
X167493000Y-94232406D01*
X167614179Y-94209605D01*
X167725474Y-94137988D01*
X167800138Y-94028714D01*
X167826406Y-93899000D01*
X167826406Y-93299000D01*
X167803605Y-93177821D01*
X167731988Y-93066526D01*
X167622714Y-92991862D01*
X167493000Y-92965594D01*
X165943000Y-92965594D01*
X165821821Y-92988395D01*
X165710526Y-93060012D01*
X165651089Y-93147000D01*
X165044000Y-93147000D01*
X165044000Y-89281000D01*
X166619776Y-89281000D01*
X166525388Y-89375388D01*
X166482336Y-89439819D01*
X166436221Y-89502116D01*
X166433545Y-89512839D01*
X166427406Y-89522027D01*
X166412288Y-89598034D01*
X166393524Y-89673232D01*
X166296015Y-91695594D01*
X165943000Y-91695594D01*
X165821821Y-91718395D01*
X165710526Y-91790012D01*
X165635862Y-91899286D01*
X165609594Y-92029000D01*
X165609594Y-92629000D01*
X165632395Y-92750179D01*
X165704012Y-92861474D01*
X165813286Y-92936138D01*
X165943000Y-92962406D01*
X167493000Y-92962406D01*
X167614179Y-92939605D01*
X167725474Y-92867988D01*
X167800138Y-92758714D01*
X167826406Y-92629000D01*
X167826406Y-92029000D01*
X167803605Y-91907821D01*
X167731988Y-91796526D01*
X167622714Y-91721862D01*
X167493000Y-91695594D01*
X167201066Y-91695594D01*
X167237663Y-90936567D01*
X167329673Y-91158699D01*
X167508302Y-91337327D01*
X167741691Y-91434000D01*
X168182250Y-91434000D01*
X168341000Y-91275250D01*
X168341000Y-90551000D01*
X168321000Y-90551000D01*
X168321000Y-90297000D01*
X168341000Y-90297000D01*
X168341000Y-90277000D01*
X168595000Y-90277000D01*
X168595000Y-90297000D01*
X168615000Y-90297000D01*
X168615000Y-90551000D01*
X168595000Y-90551000D01*
X168595000Y-91275250D01*
X168753750Y-91434000D01*
X169194309Y-91434000D01*
X169427698Y-91337327D01*
X169606327Y-91158699D01*
X169630346Y-91100713D01*
X169638286Y-91106138D01*
X169768000Y-91132406D01*
X170968000Y-91132406D01*
X171089179Y-91109605D01*
X171200474Y-91037988D01*
X171275138Y-90928714D01*
X171285813Y-90876000D01*
X171361397Y-90876000D01*
X171426145Y-91032703D01*
X171602369Y-91209235D01*
X171666000Y-91235657D01*
X171666000Y-91695594D01*
X171343000Y-91695594D01*
X171221821Y-91718395D01*
X171110526Y-91790012D01*
X171061075Y-91862385D01*
X171061109Y-91823829D01*
X170965855Y-91593297D01*
X170789631Y-91416765D01*
X170559265Y-91321109D01*
X170309829Y-91320891D01*
X170079297Y-91416145D01*
X169902765Y-91592369D01*
X169807109Y-91822735D01*
X169807010Y-91935765D01*
X168529388Y-93213388D01*
X168431406Y-93360027D01*
X168397000Y-93533000D01*
X168397000Y-95631775D01*
X168341776Y-95687000D01*
X167783772Y-95687000D01*
X167731988Y-95606526D01*
X167622714Y-95531862D01*
X167493000Y-95505594D01*
X165943000Y-95505594D01*
X165821821Y-95528395D01*
X165710526Y-95600012D01*
X165635862Y-95709286D01*
X165609594Y-95839000D01*
X165609594Y-96439000D01*
X165632395Y-96560179D01*
X165704012Y-96671474D01*
X165813286Y-96746138D01*
X165943000Y-96772406D01*
X167493000Y-96772406D01*
X167614179Y-96749605D01*
X167725474Y-96677988D01*
X167784911Y-96591000D01*
X168016000Y-96591000D01*
X168016000Y-97208594D01*
X167868000Y-97208594D01*
X167746821Y-97231395D01*
X167635526Y-97303012D01*
X167560862Y-97412286D01*
X167534594Y-97542000D01*
X167534594Y-98292000D01*
X167557395Y-98413179D01*
X167629012Y-98524474D01*
X167738286Y-98599138D01*
X167868000Y-98625406D01*
X169068000Y-98625406D01*
X169189179Y-98602605D01*
X169205095Y-98592363D01*
X169229673Y-98651699D01*
X169335975Y-98758000D01*
X160924704Y-98758000D01*
X161053560Y-98704758D01*
X161567952Y-98191264D01*
X161846682Y-97520007D01*
X161847316Y-96793182D01*
X161569758Y-96121440D01*
X161056264Y-95607048D01*
X160385007Y-95328318D01*
X159658182Y-95327684D01*
X158986440Y-95605242D01*
X158472048Y-96118736D01*
X158193318Y-96789993D01*
X158192684Y-97516818D01*
X158470242Y-98188560D01*
X158983736Y-98702952D01*
X159116306Y-98758000D01*
X157782000Y-98758000D01*
X157782000Y-89281000D01*
X162743000Y-89281000D01*
X162743000Y-93091000D01*
G36*
X176411109Y-90806735D02*
X176410891Y-91056171D01*
X176506145Y-91286703D01*
X176659287Y-91440113D01*
X176506765Y-91592369D01*
X176411109Y-91822735D01*
X176410891Y-92072171D01*
X176506145Y-92302703D01*
X176596388Y-92393104D01*
X175708310Y-92393104D01*
X175587131Y-92415905D01*
X175475836Y-92487522D01*
X175401172Y-92596796D01*
X175374904Y-92726510D01*
X175374904Y-94725490D01*
X175397705Y-94846669D01*
X175469322Y-94957964D01*
X175578596Y-95032628D01*
X175708310Y-95058896D01*
X177901851Y-95058896D01*
X177922000Y-95079045D01*
X177922000Y-96446594D01*
X177774000Y-96446594D01*
X177652821Y-96469395D01*
X177541526Y-96541012D01*
X177466862Y-96650286D01*
X177440594Y-96780000D01*
X177440594Y-97530000D01*
X177463395Y-97651179D01*
X177535012Y-97762474D01*
X177644286Y-97837138D01*
X177774000Y-97863406D01*
X178443182Y-97863406D01*
X179324388Y-98744612D01*
X179344424Y-98758000D01*
X176164704Y-98758000D01*
X176293560Y-98704758D01*
X176807952Y-98191264D01*
X177086682Y-97520007D01*
X177087316Y-96793182D01*
X176809758Y-96121440D01*
X176296264Y-95607048D01*
X175625007Y-95328318D01*
X174898182Y-95327684D01*
X174307458Y-95571766D01*
X174817612Y-95061612D01*
X174915594Y-94914973D01*
X174950000Y-94742000D01*
X174950000Y-91627224D01*
X175447224Y-91130000D01*
X175768000Y-91130000D01*
X175940973Y-91095594D01*
X176087612Y-90997612D01*
X176505281Y-90579943D01*
X176411109Y-90806735D01*
X176411109Y-90806735D01*
G37*
X176411109Y-90806735D02*
X176410891Y-91056171D01*
X176506145Y-91286703D01*
X176659287Y-91440113D01*
X176506765Y-91592369D01*
X176411109Y-91822735D01*
X176410891Y-92072171D01*
X176506145Y-92302703D01*
X176596388Y-92393104D01*
X175708310Y-92393104D01*
X175587131Y-92415905D01*
X175475836Y-92487522D01*
X175401172Y-92596796D01*
X175374904Y-92726510D01*
X175374904Y-94725490D01*
X175397705Y-94846669D01*
X175469322Y-94957964D01*
X175578596Y-95032628D01*
X175708310Y-95058896D01*
X177901851Y-95058896D01*
X177922000Y-95079045D01*
X177922000Y-96446594D01*
X177774000Y-96446594D01*
X177652821Y-96469395D01*
X177541526Y-96541012D01*
X177466862Y-96650286D01*
X177440594Y-96780000D01*
X177440594Y-97530000D01*
X177463395Y-97651179D01*
X177535012Y-97762474D01*
X177644286Y-97837138D01*
X177774000Y-97863406D01*
X178443182Y-97863406D01*
X179324388Y-98744612D01*
X179344424Y-98758000D01*
X176164704Y-98758000D01*
X176293560Y-98704758D01*
X176807952Y-98191264D01*
X177086682Y-97520007D01*
X177087316Y-96793182D01*
X176809758Y-96121440D01*
X176296264Y-95607048D01*
X175625007Y-95328318D01*
X174898182Y-95327684D01*
X174307458Y-95571766D01*
X174817612Y-95061612D01*
X174915594Y-94914973D01*
X174950000Y-94742000D01*
X174950000Y-91627224D01*
X175447224Y-91130000D01*
X175768000Y-91130000D01*
X175940973Y-91095594D01*
X176087612Y-90997612D01*
X176505281Y-90579943D01*
X176411109Y-90806735D01*
G36*
X181696071Y-94764707D02*
X181722364Y-94775598D01*
X181722364Y-95727520D01*
X181745165Y-95848699D01*
X181816782Y-95959994D01*
X181926056Y-96034658D01*
X182055770Y-96060926D01*
X183000902Y-96060926D01*
X183084976Y-96145000D01*
X182977750Y-96145000D01*
X182819000Y-96303750D01*
X182819000Y-97028000D01*
X182839000Y-97028000D01*
X182839000Y-97282000D01*
X182819000Y-97282000D01*
X182819000Y-97302000D01*
X182565000Y-97302000D01*
X182565000Y-97282000D01*
X181615750Y-97282000D01*
X181483000Y-97414750D01*
X181350250Y-97282000D01*
X180401000Y-97282000D01*
X180401000Y-97302000D01*
X180147000Y-97302000D01*
X180147000Y-97282000D01*
X180127000Y-97282000D01*
X180127000Y-97028000D01*
X180147000Y-97028000D01*
X180147000Y-96303750D01*
X180032660Y-96189410D01*
X180032660Y-95354140D01*
X180286660Y-95354140D01*
X180286660Y-96203770D01*
X180401000Y-96318110D01*
X180401000Y-97028000D01*
X181350250Y-97028000D01*
X181483000Y-96895250D01*
X181615750Y-97028000D01*
X182565000Y-97028000D01*
X182565000Y-96303750D01*
X182406250Y-96145000D01*
X181965691Y-96145000D01*
X181732302Y-96241673D01*
X181553673Y-96420301D01*
X181483000Y-96590921D01*
X181412327Y-96420301D01*
X181261404Y-96269378D01*
X181269929Y-96265847D01*
X181448557Y-96087218D01*
X181545230Y-95853829D01*
X181545230Y-95512890D01*
X181386480Y-95354140D01*
X180286660Y-95354140D01*
X180032660Y-95354140D01*
X180012660Y-95354140D01*
X180012660Y-95100140D01*
X180032660Y-95100140D01*
X180032660Y-95080140D01*
X180286660Y-95080140D01*
X180286660Y-95100140D01*
X181386480Y-95100140D01*
X181545230Y-94941390D01*
X181545230Y-94613865D01*
X181696071Y-94764707D01*
X181696071Y-94764707D01*
G37*
X181696071Y-94764707D02*
X181722364Y-94775598D01*
X181722364Y-95727520D01*
X181745165Y-95848699D01*
X181816782Y-95959994D01*
X181926056Y-96034658D01*
X182055770Y-96060926D01*
X183000902Y-96060926D01*
X183084976Y-96145000D01*
X182977750Y-96145000D01*
X182819000Y-96303750D01*
X182819000Y-97028000D01*
X182839000Y-97028000D01*
X182839000Y-97282000D01*
X182819000Y-97282000D01*
X182819000Y-97302000D01*
X182565000Y-97302000D01*
X182565000Y-97282000D01*
X181615750Y-97282000D01*
X181483000Y-97414750D01*
X181350250Y-97282000D01*
X180401000Y-97282000D01*
X180401000Y-97302000D01*
X180147000Y-97302000D01*
X180147000Y-97282000D01*
X180127000Y-97282000D01*
X180127000Y-97028000D01*
X180147000Y-97028000D01*
X180147000Y-96303750D01*
X180032660Y-96189410D01*
X180032660Y-95354140D01*
X180286660Y-95354140D01*
X180286660Y-96203770D01*
X180401000Y-96318110D01*
X180401000Y-97028000D01*
X181350250Y-97028000D01*
X181483000Y-96895250D01*
X181615750Y-97028000D01*
X182565000Y-97028000D01*
X182565000Y-96303750D01*
X182406250Y-96145000D01*
X181965691Y-96145000D01*
X181732302Y-96241673D01*
X181553673Y-96420301D01*
X181483000Y-96590921D01*
X181412327Y-96420301D01*
X181261404Y-96269378D01*
X181269929Y-96265847D01*
X181448557Y-96087218D01*
X181545230Y-95853829D01*
X181545230Y-95512890D01*
X181386480Y-95354140D01*
X180286660Y-95354140D01*
X180032660Y-95354140D01*
X180012660Y-95354140D01*
X180012660Y-95100140D01*
X180032660Y-95100140D01*
X180032660Y-95080140D01*
X180286660Y-95080140D01*
X180286660Y-95100140D01*
X181386480Y-95100140D01*
X181545230Y-94941390D01*
X181545230Y-94613865D01*
X181696071Y-94764707D01*
G36*
X173162388Y-89596388D02*
X173064406Y-89743027D01*
X173030000Y-89916000D01*
X173030000Y-91726840D01*
X173022714Y-91721862D01*
X172893000Y-91695594D01*
X172570000Y-91695594D01*
X172570000Y-90839127D01*
X172584891Y-90803265D01*
X172585109Y-90553829D01*
X172489855Y-90323297D01*
X172313631Y-90146765D01*
X172083265Y-90051109D01*
X171943693Y-90050987D01*
X171876973Y-90006406D01*
X171704000Y-89972000D01*
X171286918Y-89972000D01*
X171278605Y-89927821D01*
X171206988Y-89816526D01*
X171097714Y-89741862D01*
X170968000Y-89715594D01*
X170394507Y-89715594D01*
X170479973Y-89698594D01*
X170626612Y-89600612D01*
X170946224Y-89281000D01*
X173477776Y-89281000D01*
X173162388Y-89596388D01*
X173162388Y-89596388D01*
G37*
X173162388Y-89596388D02*
X173064406Y-89743027D01*
X173030000Y-89916000D01*
X173030000Y-91726840D01*
X173022714Y-91721862D01*
X172893000Y-91695594D01*
X172570000Y-91695594D01*
X172570000Y-90839127D01*
X172584891Y-90803265D01*
X172585109Y-90553829D01*
X172489855Y-90323297D01*
X172313631Y-90146765D01*
X172083265Y-90051109D01*
X171943693Y-90050987D01*
X171876973Y-90006406D01*
X171704000Y-89972000D01*
X171286918Y-89972000D01*
X171278605Y-89927821D01*
X171206988Y-89816526D01*
X171097714Y-89741862D01*
X170968000Y-89715594D01*
X170394507Y-89715594D01*
X170479973Y-89698594D01*
X170626612Y-89600612D01*
X170946224Y-89281000D01*
X173477776Y-89281000D01*
X173162388Y-89596388D01*
M02*
