G04 #@! TF.FileFunction,Soldermask,Top*
%FSLAX46Y46*%
G04 Gerber Fmt 4.6, Leading zero omitted, Abs format (unit mm)*
G04 Created by KiCad (PCBNEW 0.201510170916+6271~30~ubuntu14.04.1-product) date lun. 26 oct. 2015 23:12:23 CET*
%MOMM*%
G01*
G04 APERTURE LIST*
%ADD10C,0.100000*%
%ADD11R,2.432000X2.127200*%
%ADD12O,2.432000X2.127200*%
%ADD13R,1.901140X1.400760*%
%ADD14R,3.399740X2.398980*%
%ADD15R,1.600000X1.150000*%
%ADD16R,2.127200X2.432000*%
%ADD17O,2.127200X2.432000*%
%ADD18R,1.950000X1.000000*%
%ADD19R,1.300000X1.600000*%
%ADD20R,1.600000X1.300000*%
%ADD21C,3.400000*%
%ADD22C,0.254000*%
G04 APERTURE END LIST*
D10*
D11*
X190500000Y-96520000D03*
D12*
X190500000Y-93980000D03*
X190500000Y-91440000D03*
D13*
X182806340Y-92224860D03*
X182806340Y-93726000D03*
X182806340Y-95227140D03*
D14*
X185757820Y-93726000D03*
D10*
G36*
X184483350Y-94926760D02*
X183334050Y-94426380D01*
X183334050Y-93025620D01*
X184483350Y-92525240D01*
X184483350Y-94926760D01*
X184483350Y-94926760D01*
G37*
D13*
X180159660Y-95227140D03*
X180159660Y-93726000D03*
X180159660Y-92224860D03*
D14*
X177208180Y-93726000D03*
D10*
G36*
X178482650Y-92525240D02*
X179631950Y-93025620D01*
X179631950Y-94426380D01*
X178482650Y-94926760D01*
X178482650Y-92525240D01*
X178482650Y-92525240D01*
G37*
D15*
X184592000Y-97155000D03*
X182692000Y-97155000D03*
X180274000Y-97155000D03*
X178374000Y-97155000D03*
X170368000Y-90424000D03*
X168468000Y-90424000D03*
X170368000Y-97917000D03*
X168468000Y-97917000D03*
D16*
X167640000Y-78740000D03*
D17*
X165100000Y-78740000D03*
X162560000Y-78740000D03*
D16*
X182880000Y-78740000D03*
D17*
X185420000Y-78740000D03*
X187960000Y-78740000D03*
D18*
X166718000Y-92329000D03*
X166718000Y-93599000D03*
X166718000Y-94869000D03*
X166718000Y-96139000D03*
X172118000Y-96139000D03*
X172118000Y-94869000D03*
X172118000Y-93599000D03*
X172118000Y-92329000D03*
D19*
X158750000Y-85555000D03*
X158750000Y-83355000D03*
X168910000Y-85555000D03*
X168910000Y-83355000D03*
X161290000Y-87460000D03*
X161290000Y-85260000D03*
X165608000Y-85260000D03*
X165608000Y-87460000D03*
D20*
X171280000Y-87630000D03*
X169080000Y-87630000D03*
D19*
X191770000Y-85555000D03*
X191770000Y-83355000D03*
X181610000Y-85555000D03*
X181610000Y-83355000D03*
X188595000Y-87460000D03*
X188595000Y-85260000D03*
X185420000Y-85260000D03*
X185420000Y-87460000D03*
D20*
X179240000Y-87630000D03*
X181440000Y-87630000D03*
D19*
X171450000Y-85555000D03*
X171450000Y-83355000D03*
X179070000Y-85555000D03*
X179070000Y-83355000D03*
D21*
X160020000Y-97155000D03*
X175260000Y-97155000D03*
D22*
G36*
X192913000Y-88519000D02*
X157607000Y-88519000D01*
X157607000Y-80391000D01*
X192913000Y-80391000D01*
X192913000Y-88519000D01*
X192913000Y-88519000D01*
G37*
X192913000Y-88519000D02*
X157607000Y-88519000D01*
X157607000Y-80391000D01*
X192913000Y-80391000D01*
X192913000Y-88519000D01*
M02*
