G04 #@! TF.FileFunction,Copper,L2,Bot,Signal*
%FSLAX46Y46*%
G04 Gerber Fmt 4.6, Leading zero omitted, Abs format (unit mm)*
G04 Created by KiCad (PCBNEW 0.201510170916+6271~30~ubuntu14.04.1-product) date lun. 26 oct. 2015 23:12:23 CET*
%MOMM*%
G01*
G04 APERTURE LIST*
%ADD10C,0.100000*%
%ADD11R,2.032000X1.727200*%
%ADD12O,2.032000X1.727200*%
%ADD13R,1.727200X2.032000*%
%ADD14O,1.727200X2.032000*%
%ADD15C,3.000000*%
%ADD16C,0.600000*%
%ADD17C,0.250000*%
%ADD18C,0.254000*%
G04 APERTURE END LIST*
D10*
D11*
X190500000Y-96520000D03*
D12*
X190500000Y-93980000D03*
X190500000Y-91440000D03*
D13*
X167640000Y-78740000D03*
D14*
X165100000Y-78740000D03*
X162560000Y-78740000D03*
D13*
X182880000Y-78740000D03*
D14*
X185420000Y-78740000D03*
X187960000Y-78740000D03*
D15*
X160020000Y-97155000D03*
X175260000Y-97155000D03*
D16*
X183642000Y-90678000D03*
X187452000Y-90678000D03*
X166624000Y-98298000D03*
X162560000Y-98044000D03*
X158496000Y-94742000D03*
X158496000Y-91440000D03*
X160274000Y-90170000D03*
X162052000Y-90932000D03*
X162052000Y-93726000D03*
X164338000Y-95758000D03*
X172720000Y-98044000D03*
X177292000Y-95504000D03*
X172720000Y-89535000D03*
X176530000Y-84455000D03*
X175260000Y-84455000D03*
X173990000Y-84455000D03*
X161290000Y-84455000D03*
X162560000Y-84455000D03*
X163830000Y-84455000D03*
X165100000Y-84455000D03*
X166370000Y-84455000D03*
X184150000Y-84455000D03*
X189230000Y-84455000D03*
X187960000Y-84455000D03*
X186690000Y-84455000D03*
X185420000Y-84455000D03*
X188976000Y-92964000D03*
X181356000Y-96139000D03*
X170307000Y-96647000D03*
X168529000Y-92075000D03*
X177038000Y-90932000D03*
X171958000Y-90678000D03*
X177038000Y-91948000D03*
X170434000Y-91948000D03*
D17*
X188976000Y-92964000D02*
X188976000Y-92202000D01*
X188976000Y-92202000D02*
X187452000Y-90678000D01*
X170307000Y-96647000D02*
X165227000Y-96647000D01*
X162560000Y-96012000D02*
X162560000Y-98044000D01*
X161290000Y-94742000D02*
X162560000Y-96012000D01*
X158496000Y-94742000D02*
X161290000Y-94742000D01*
X159004000Y-91440000D02*
X158496000Y-91440000D01*
X160274000Y-90170000D02*
X159004000Y-91440000D01*
X162052000Y-93726000D02*
X162052000Y-90932000D01*
X165227000Y-96647000D02*
X164338000Y-95758000D01*
X170307000Y-96647000D02*
X171323000Y-96647000D01*
X171323000Y-96647000D02*
X172720000Y-98044000D01*
X175006000Y-93980000D02*
X175768000Y-93980000D01*
X175768000Y-93980000D02*
X177292000Y-95504000D01*
X170307000Y-96647000D02*
X170307000Y-96393000D01*
X179197000Y-93980000D02*
X181356000Y-96139000D01*
X172720000Y-93980000D02*
X175006000Y-93980000D01*
X175006000Y-93980000D02*
X179197000Y-93980000D01*
X170307000Y-96393000D02*
X172720000Y-93980000D01*
X173990000Y-84455000D02*
X173990000Y-88265000D01*
X173990000Y-88265000D02*
X172720000Y-89535000D01*
X166370000Y-84455000D02*
X173990000Y-84455000D01*
X175260000Y-84455000D02*
X176530000Y-84455000D01*
X162560000Y-84455000D02*
X161290000Y-84455000D01*
X165100000Y-84455000D02*
X163830000Y-84455000D01*
X168529000Y-92075000D02*
X168529000Y-86614000D01*
X168529000Y-86614000D02*
X166370000Y-84455000D01*
X188595000Y-88900000D02*
X188595000Y-93345000D01*
X184150000Y-84455000D02*
X188595000Y-88900000D01*
X189230000Y-84455000D02*
X187960000Y-84455000D01*
X186690000Y-84455000D02*
X185420000Y-84455000D01*
X188976000Y-92964000D02*
X188595000Y-93345000D01*
X188595000Y-93345000D02*
X185801000Y-96139000D01*
X185801000Y-96139000D02*
X181356000Y-96139000D01*
X170307000Y-93853000D02*
X170307000Y-96647000D01*
X168529000Y-92075000D02*
X170307000Y-93853000D01*
X172212000Y-90932000D02*
X177038000Y-90932000D01*
X171958000Y-90678000D02*
X172212000Y-90932000D01*
X177038000Y-91948000D02*
X170434000Y-91948000D01*
D18*
G36*
X161460029Y-78105666D02*
X161369400Y-78561289D01*
X161369400Y-78918711D01*
X161460029Y-79374334D01*
X161718119Y-79760592D01*
X162104377Y-80018682D01*
X162560000Y-80109311D01*
X163015623Y-80018682D01*
X163401881Y-79760592D01*
X163659971Y-79374334D01*
X163750600Y-78918711D01*
X163750600Y-78561289D01*
X163659971Y-78105666D01*
X163437022Y-77772000D01*
X164222978Y-77772000D01*
X164000029Y-78105666D01*
X163909400Y-78561289D01*
X163909400Y-78918711D01*
X164000029Y-79374334D01*
X164258119Y-79760592D01*
X164644377Y-80018682D01*
X165100000Y-80109311D01*
X165555623Y-80018682D01*
X165941881Y-79760592D01*
X166199971Y-79374334D01*
X166290600Y-78918711D01*
X166290600Y-78561289D01*
X166199971Y-78105666D01*
X165977022Y-77772000D01*
X166442994Y-77772000D01*
X166442994Y-79756000D01*
X166465795Y-79877179D01*
X166537412Y-79988474D01*
X166646686Y-80063138D01*
X166776400Y-80089406D01*
X168503600Y-80089406D01*
X168624779Y-80066605D01*
X168736074Y-79994988D01*
X168810738Y-79885714D01*
X168837006Y-79756000D01*
X168837006Y-77772000D01*
X181682994Y-77772000D01*
X181682994Y-79756000D01*
X181705795Y-79877179D01*
X181777412Y-79988474D01*
X181886686Y-80063138D01*
X182016400Y-80089406D01*
X183743600Y-80089406D01*
X183864779Y-80066605D01*
X183976074Y-79994988D01*
X184050738Y-79885714D01*
X184077006Y-79756000D01*
X184077006Y-77772000D01*
X184542978Y-77772000D01*
X184320029Y-78105666D01*
X184229400Y-78561289D01*
X184229400Y-78918711D01*
X184320029Y-79374334D01*
X184578119Y-79760592D01*
X184964377Y-80018682D01*
X185420000Y-80109311D01*
X185875623Y-80018682D01*
X186261881Y-79760592D01*
X186519971Y-79374334D01*
X186610600Y-78918711D01*
X186610600Y-78561289D01*
X186519971Y-78105666D01*
X186297022Y-77772000D01*
X187082978Y-77772000D01*
X186860029Y-78105666D01*
X186769400Y-78561289D01*
X186769400Y-78918711D01*
X186860029Y-79374334D01*
X187118119Y-79760592D01*
X187504377Y-80018682D01*
X187960000Y-80109311D01*
X188415623Y-80018682D01*
X188801881Y-79760592D01*
X189059971Y-79374334D01*
X189150600Y-78918711D01*
X189150600Y-78561289D01*
X189059971Y-78105666D01*
X188837022Y-77772000D01*
X192738000Y-77772000D01*
X192738000Y-98758000D01*
X176164704Y-98758000D01*
X176293560Y-98704758D01*
X176807952Y-98191264D01*
X177086682Y-97520007D01*
X177087316Y-96793182D01*
X176809758Y-96121440D01*
X176296264Y-95607048D01*
X175625007Y-95328318D01*
X174898182Y-95327684D01*
X174226440Y-95605242D01*
X173712048Y-96118736D01*
X173433318Y-96789993D01*
X173432684Y-97516818D01*
X173710242Y-98188560D01*
X174223736Y-98702952D01*
X174356306Y-98758000D01*
X160924704Y-98758000D01*
X161053560Y-98704758D01*
X161567952Y-98191264D01*
X161846682Y-97520007D01*
X161847316Y-96793182D01*
X161569758Y-96121440D01*
X161056264Y-95607048D01*
X160385007Y-95328318D01*
X159658182Y-95327684D01*
X158986440Y-95605242D01*
X158472048Y-96118736D01*
X158193318Y-96789993D01*
X158192684Y-97516818D01*
X158470242Y-98188560D01*
X158983736Y-98702952D01*
X159116306Y-98758000D01*
X157782000Y-98758000D01*
X157782000Y-94339026D01*
X188892642Y-94339026D01*
X188895291Y-94354791D01*
X189149268Y-94882036D01*
X189585680Y-95271954D01*
X189731593Y-95322994D01*
X189484000Y-95322994D01*
X189362821Y-95345795D01*
X189251526Y-95417412D01*
X189176862Y-95526686D01*
X189150594Y-95656400D01*
X189150594Y-97383600D01*
X189173395Y-97504779D01*
X189245012Y-97616074D01*
X189354286Y-97690738D01*
X189484000Y-97717006D01*
X191516000Y-97717006D01*
X191637179Y-97694205D01*
X191748474Y-97622588D01*
X191823138Y-97513314D01*
X191849406Y-97383600D01*
X191849406Y-95656400D01*
X191826605Y-95535221D01*
X191754988Y-95423926D01*
X191645714Y-95349262D01*
X191516000Y-95322994D01*
X191268407Y-95322994D01*
X191414320Y-95271954D01*
X191850732Y-94882036D01*
X192104709Y-94354791D01*
X192107358Y-94339026D01*
X191986217Y-94107000D01*
X190627000Y-94107000D01*
X190627000Y-94127000D01*
X190373000Y-94127000D01*
X190373000Y-94107000D01*
X189013783Y-94107000D01*
X188892642Y-94339026D01*
X157782000Y-94339026D01*
X157782000Y-93620974D01*
X188892642Y-93620974D01*
X189013783Y-93853000D01*
X190373000Y-93853000D01*
X190373000Y-93833000D01*
X190627000Y-93833000D01*
X190627000Y-93853000D01*
X191986217Y-93853000D01*
X192107358Y-93620974D01*
X192104709Y-93605209D01*
X191850732Y-93077964D01*
X191414320Y-92688046D01*
X191042961Y-92558146D01*
X191134334Y-92539971D01*
X191520592Y-92281881D01*
X191778682Y-91895623D01*
X191869311Y-91440000D01*
X191778682Y-90984377D01*
X191520592Y-90598119D01*
X191134334Y-90340029D01*
X190678711Y-90249400D01*
X190321289Y-90249400D01*
X189865666Y-90340029D01*
X189479408Y-90598119D01*
X189221318Y-90984377D01*
X189130689Y-91440000D01*
X189221318Y-91895623D01*
X189479408Y-92281881D01*
X189865666Y-92539971D01*
X189957039Y-92558146D01*
X189585680Y-92688046D01*
X189149268Y-93077964D01*
X188895291Y-93605209D01*
X188892642Y-93620974D01*
X157782000Y-93620974D01*
X157782000Y-92072171D01*
X169806891Y-92072171D01*
X169902145Y-92302703D01*
X170078369Y-92479235D01*
X170308735Y-92574891D01*
X170558171Y-92575109D01*
X170788703Y-92479855D01*
X170868698Y-92400000D01*
X176603272Y-92400000D01*
X176682369Y-92479235D01*
X176912735Y-92574891D01*
X177162171Y-92575109D01*
X177392703Y-92479855D01*
X177569235Y-92303631D01*
X177664891Y-92073265D01*
X177665109Y-91823829D01*
X177569855Y-91593297D01*
X177416713Y-91439887D01*
X177569235Y-91287631D01*
X177664891Y-91057265D01*
X177665109Y-90807829D01*
X177569855Y-90577297D01*
X177393631Y-90400765D01*
X177163265Y-90305109D01*
X176913829Y-90304891D01*
X176683297Y-90400145D01*
X176603302Y-90480000D01*
X172554603Y-90480000D01*
X172489855Y-90323297D01*
X172313631Y-90146765D01*
X172083265Y-90051109D01*
X171833829Y-90050891D01*
X171603297Y-90146145D01*
X171426765Y-90322369D01*
X171331109Y-90552735D01*
X171330891Y-90802171D01*
X171426145Y-91032703D01*
X171602369Y-91209235D01*
X171832735Y-91304891D01*
X171972307Y-91305013D01*
X172039027Y-91349594D01*
X172212000Y-91384000D01*
X176603272Y-91384000D01*
X176659287Y-91440113D01*
X176603302Y-91496000D01*
X170868728Y-91496000D01*
X170789631Y-91416765D01*
X170559265Y-91321109D01*
X170309829Y-91320891D01*
X170079297Y-91416145D01*
X169902765Y-91592369D01*
X169807109Y-91822735D01*
X169806891Y-92072171D01*
X157782000Y-92072171D01*
X157782000Y-77772000D01*
X161682978Y-77772000D01*
X161460029Y-78105666D01*
X161460029Y-78105666D01*
G37*
X161460029Y-78105666D02*
X161369400Y-78561289D01*
X161369400Y-78918711D01*
X161460029Y-79374334D01*
X161718119Y-79760592D01*
X162104377Y-80018682D01*
X162560000Y-80109311D01*
X163015623Y-80018682D01*
X163401881Y-79760592D01*
X163659971Y-79374334D01*
X163750600Y-78918711D01*
X163750600Y-78561289D01*
X163659971Y-78105666D01*
X163437022Y-77772000D01*
X164222978Y-77772000D01*
X164000029Y-78105666D01*
X163909400Y-78561289D01*
X163909400Y-78918711D01*
X164000029Y-79374334D01*
X164258119Y-79760592D01*
X164644377Y-80018682D01*
X165100000Y-80109311D01*
X165555623Y-80018682D01*
X165941881Y-79760592D01*
X166199971Y-79374334D01*
X166290600Y-78918711D01*
X166290600Y-78561289D01*
X166199971Y-78105666D01*
X165977022Y-77772000D01*
X166442994Y-77772000D01*
X166442994Y-79756000D01*
X166465795Y-79877179D01*
X166537412Y-79988474D01*
X166646686Y-80063138D01*
X166776400Y-80089406D01*
X168503600Y-80089406D01*
X168624779Y-80066605D01*
X168736074Y-79994988D01*
X168810738Y-79885714D01*
X168837006Y-79756000D01*
X168837006Y-77772000D01*
X181682994Y-77772000D01*
X181682994Y-79756000D01*
X181705795Y-79877179D01*
X181777412Y-79988474D01*
X181886686Y-80063138D01*
X182016400Y-80089406D01*
X183743600Y-80089406D01*
X183864779Y-80066605D01*
X183976074Y-79994988D01*
X184050738Y-79885714D01*
X184077006Y-79756000D01*
X184077006Y-77772000D01*
X184542978Y-77772000D01*
X184320029Y-78105666D01*
X184229400Y-78561289D01*
X184229400Y-78918711D01*
X184320029Y-79374334D01*
X184578119Y-79760592D01*
X184964377Y-80018682D01*
X185420000Y-80109311D01*
X185875623Y-80018682D01*
X186261881Y-79760592D01*
X186519971Y-79374334D01*
X186610600Y-78918711D01*
X186610600Y-78561289D01*
X186519971Y-78105666D01*
X186297022Y-77772000D01*
X187082978Y-77772000D01*
X186860029Y-78105666D01*
X186769400Y-78561289D01*
X186769400Y-78918711D01*
X186860029Y-79374334D01*
X187118119Y-79760592D01*
X187504377Y-80018682D01*
X187960000Y-80109311D01*
X188415623Y-80018682D01*
X188801881Y-79760592D01*
X189059971Y-79374334D01*
X189150600Y-78918711D01*
X189150600Y-78561289D01*
X189059971Y-78105666D01*
X188837022Y-77772000D01*
X192738000Y-77772000D01*
X192738000Y-98758000D01*
X176164704Y-98758000D01*
X176293560Y-98704758D01*
X176807952Y-98191264D01*
X177086682Y-97520007D01*
X177087316Y-96793182D01*
X176809758Y-96121440D01*
X176296264Y-95607048D01*
X175625007Y-95328318D01*
X174898182Y-95327684D01*
X174226440Y-95605242D01*
X173712048Y-96118736D01*
X173433318Y-96789993D01*
X173432684Y-97516818D01*
X173710242Y-98188560D01*
X174223736Y-98702952D01*
X174356306Y-98758000D01*
X160924704Y-98758000D01*
X161053560Y-98704758D01*
X161567952Y-98191264D01*
X161846682Y-97520007D01*
X161847316Y-96793182D01*
X161569758Y-96121440D01*
X161056264Y-95607048D01*
X160385007Y-95328318D01*
X159658182Y-95327684D01*
X158986440Y-95605242D01*
X158472048Y-96118736D01*
X158193318Y-96789993D01*
X158192684Y-97516818D01*
X158470242Y-98188560D01*
X158983736Y-98702952D01*
X159116306Y-98758000D01*
X157782000Y-98758000D01*
X157782000Y-94339026D01*
X188892642Y-94339026D01*
X188895291Y-94354791D01*
X189149268Y-94882036D01*
X189585680Y-95271954D01*
X189731593Y-95322994D01*
X189484000Y-95322994D01*
X189362821Y-95345795D01*
X189251526Y-95417412D01*
X189176862Y-95526686D01*
X189150594Y-95656400D01*
X189150594Y-97383600D01*
X189173395Y-97504779D01*
X189245012Y-97616074D01*
X189354286Y-97690738D01*
X189484000Y-97717006D01*
X191516000Y-97717006D01*
X191637179Y-97694205D01*
X191748474Y-97622588D01*
X191823138Y-97513314D01*
X191849406Y-97383600D01*
X191849406Y-95656400D01*
X191826605Y-95535221D01*
X191754988Y-95423926D01*
X191645714Y-95349262D01*
X191516000Y-95322994D01*
X191268407Y-95322994D01*
X191414320Y-95271954D01*
X191850732Y-94882036D01*
X192104709Y-94354791D01*
X192107358Y-94339026D01*
X191986217Y-94107000D01*
X190627000Y-94107000D01*
X190627000Y-94127000D01*
X190373000Y-94127000D01*
X190373000Y-94107000D01*
X189013783Y-94107000D01*
X188892642Y-94339026D01*
X157782000Y-94339026D01*
X157782000Y-93620974D01*
X188892642Y-93620974D01*
X189013783Y-93853000D01*
X190373000Y-93853000D01*
X190373000Y-93833000D01*
X190627000Y-93833000D01*
X190627000Y-93853000D01*
X191986217Y-93853000D01*
X192107358Y-93620974D01*
X192104709Y-93605209D01*
X191850732Y-93077964D01*
X191414320Y-92688046D01*
X191042961Y-92558146D01*
X191134334Y-92539971D01*
X191520592Y-92281881D01*
X191778682Y-91895623D01*
X191869311Y-91440000D01*
X191778682Y-90984377D01*
X191520592Y-90598119D01*
X191134334Y-90340029D01*
X190678711Y-90249400D01*
X190321289Y-90249400D01*
X189865666Y-90340029D01*
X189479408Y-90598119D01*
X189221318Y-90984377D01*
X189130689Y-91440000D01*
X189221318Y-91895623D01*
X189479408Y-92281881D01*
X189865666Y-92539971D01*
X189957039Y-92558146D01*
X189585680Y-92688046D01*
X189149268Y-93077964D01*
X188895291Y-93605209D01*
X188892642Y-93620974D01*
X157782000Y-93620974D01*
X157782000Y-92072171D01*
X169806891Y-92072171D01*
X169902145Y-92302703D01*
X170078369Y-92479235D01*
X170308735Y-92574891D01*
X170558171Y-92575109D01*
X170788703Y-92479855D01*
X170868698Y-92400000D01*
X176603272Y-92400000D01*
X176682369Y-92479235D01*
X176912735Y-92574891D01*
X177162171Y-92575109D01*
X177392703Y-92479855D01*
X177569235Y-92303631D01*
X177664891Y-92073265D01*
X177665109Y-91823829D01*
X177569855Y-91593297D01*
X177416713Y-91439887D01*
X177569235Y-91287631D01*
X177664891Y-91057265D01*
X177665109Y-90807829D01*
X177569855Y-90577297D01*
X177393631Y-90400765D01*
X177163265Y-90305109D01*
X176913829Y-90304891D01*
X176683297Y-90400145D01*
X176603302Y-90480000D01*
X172554603Y-90480000D01*
X172489855Y-90323297D01*
X172313631Y-90146765D01*
X172083265Y-90051109D01*
X171833829Y-90050891D01*
X171603297Y-90146145D01*
X171426765Y-90322369D01*
X171331109Y-90552735D01*
X171330891Y-90802171D01*
X171426145Y-91032703D01*
X171602369Y-91209235D01*
X171832735Y-91304891D01*
X171972307Y-91305013D01*
X172039027Y-91349594D01*
X172212000Y-91384000D01*
X176603272Y-91384000D01*
X176659287Y-91440113D01*
X176603302Y-91496000D01*
X170868728Y-91496000D01*
X170789631Y-91416765D01*
X170559265Y-91321109D01*
X170309829Y-91320891D01*
X170079297Y-91416145D01*
X169902765Y-91592369D01*
X169807109Y-91822735D01*
X169806891Y-92072171D01*
X157782000Y-92072171D01*
X157782000Y-77772000D01*
X161682978Y-77772000D01*
X161460029Y-78105666D01*
M02*
