G04 #@! TF.FileFunction,Legend,Top*
%FSLAX46Y46*%
G04 Gerber Fmt 4.6, Leading zero omitted, Abs format (unit mm)*
G04 Created by KiCad (PCBNEW 0.201510170916+6271~30~ubuntu14.04.1-product) date lun. 26 oct. 2015 23:12:23 CET*
%MOMM*%
G01*
G04 APERTURE LIST*
%ADD10C,0.100000*%
%ADD11C,0.200000*%
%ADD12C,0.300000*%
%ADD13C,0.150000*%
%ADD14C,0.010000*%
G04 APERTURE END LIST*
D10*
D11*
X187055238Y-88955619D02*
X187102857Y-88908000D01*
X187198095Y-88860381D01*
X187436191Y-88860381D01*
X187531429Y-88908000D01*
X187579048Y-88955619D01*
X187626667Y-89050857D01*
X187626667Y-89146095D01*
X187579048Y-89288952D01*
X187007619Y-89860381D01*
X187626667Y-89860381D01*
X188055238Y-89479429D02*
X188817143Y-89479429D01*
X188436191Y-89860381D02*
X188436191Y-89098476D01*
X181467238Y-88955619D02*
X181514857Y-88908000D01*
X181610095Y-88860381D01*
X181848191Y-88860381D01*
X181943429Y-88908000D01*
X181991048Y-88955619D01*
X182038667Y-89050857D01*
X182038667Y-89146095D01*
X181991048Y-89288952D01*
X181419619Y-89860381D01*
X182038667Y-89860381D01*
X182467238Y-89479429D02*
X183229143Y-89479429D01*
X175577714Y-88955619D02*
X175625333Y-88908000D01*
X175720571Y-88860381D01*
X175958667Y-88860381D01*
X176053905Y-88908000D01*
X176101524Y-88955619D01*
X176149143Y-89050857D01*
X176149143Y-89146095D01*
X176101524Y-89288952D01*
X175530095Y-89860381D01*
X176149143Y-89860381D01*
X176768190Y-88860381D02*
X176958667Y-88860381D01*
X177053905Y-88908000D01*
X177149143Y-89003238D01*
X177196762Y-89193714D01*
X177196762Y-89527048D01*
X177149143Y-89717524D01*
X177053905Y-89812762D01*
X176958667Y-89860381D01*
X176768190Y-89860381D01*
X176672952Y-89812762D01*
X176577714Y-89717524D01*
X176530095Y-89527048D01*
X176530095Y-89193714D01*
X176577714Y-89003238D01*
X176672952Y-88908000D01*
X176768190Y-88860381D01*
X177625333Y-88860381D02*
X177625333Y-89669905D01*
X177672952Y-89765143D01*
X177720571Y-89812762D01*
X177815809Y-89860381D01*
X178006286Y-89860381D01*
X178101524Y-89812762D01*
X178149143Y-89765143D01*
X178196762Y-89669905D01*
X178196762Y-88860381D01*
X178530095Y-88860381D02*
X179101524Y-88860381D01*
X178815809Y-89860381D02*
X178815809Y-88860381D01*
X171831143Y-89860381D02*
X171259714Y-89860381D01*
X171545428Y-89860381D02*
X171545428Y-88860381D01*
X171450190Y-89003238D01*
X171354952Y-89098476D01*
X171259714Y-89146095D01*
X172450190Y-88860381D02*
X172640667Y-88860381D01*
X172735905Y-88908000D01*
X172831143Y-89003238D01*
X172878762Y-89193714D01*
X172878762Y-89527048D01*
X172831143Y-89717524D01*
X172735905Y-89812762D01*
X172640667Y-89860381D01*
X172450190Y-89860381D01*
X172354952Y-89812762D01*
X172259714Y-89717524D01*
X172212095Y-89527048D01*
X172212095Y-89193714D01*
X172259714Y-89003238D01*
X172354952Y-88908000D01*
X172450190Y-88860381D01*
X173307333Y-88860381D02*
X173307333Y-89669905D01*
X173354952Y-89765143D01*
X173402571Y-89812762D01*
X173497809Y-89860381D01*
X173688286Y-89860381D01*
X173783524Y-89812762D01*
X173831143Y-89765143D01*
X173878762Y-89669905D01*
X173878762Y-88860381D01*
X174212095Y-88860381D02*
X174783524Y-88860381D01*
X174497809Y-89860381D02*
X174497809Y-88860381D01*
X165528667Y-89860381D02*
X164957238Y-89860381D01*
X165242952Y-89860381D02*
X165242952Y-88860381D01*
X165147714Y-89003238D01*
X165052476Y-89098476D01*
X164957238Y-89146095D01*
X165957238Y-89479429D02*
X166719143Y-89479429D01*
X159940667Y-89860381D02*
X159369238Y-89860381D01*
X159654952Y-89860381D02*
X159654952Y-88860381D01*
X159559714Y-89003238D01*
X159464476Y-89098476D01*
X159369238Y-89146095D01*
X160369238Y-89479429D02*
X161131143Y-89479429D01*
X160750191Y-89860381D02*
X160750191Y-89098476D01*
D12*
X168974287Y-70218572D02*
X169902858Y-70218572D01*
X169402858Y-70790001D01*
X169617144Y-70790001D01*
X169760001Y-70861430D01*
X169831430Y-70932858D01*
X169902858Y-71075715D01*
X169902858Y-71432858D01*
X169831430Y-71575715D01*
X169760001Y-71647144D01*
X169617144Y-71718572D01*
X169188572Y-71718572D01*
X169045715Y-71647144D01*
X168974287Y-71575715D01*
X171260001Y-70218572D02*
X170545715Y-70218572D01*
X170474286Y-70932858D01*
X170545715Y-70861430D01*
X170688572Y-70790001D01*
X171045715Y-70790001D01*
X171188572Y-70861430D01*
X171260001Y-70932858D01*
X171331429Y-71075715D01*
X171331429Y-71432858D01*
X171260001Y-71575715D01*
X171188572Y-71647144D01*
X171045715Y-71718572D01*
X170688572Y-71718572D01*
X170545715Y-71647144D01*
X170474286Y-71575715D01*
X172045714Y-71647144D02*
X172045714Y-71718572D01*
X171974286Y-71861430D01*
X171902857Y-71932858D01*
X173402858Y-70218572D02*
X172688572Y-70218572D01*
X172617143Y-70932858D01*
X172688572Y-70861430D01*
X172831429Y-70790001D01*
X173188572Y-70790001D01*
X173331429Y-70861430D01*
X173402858Y-70932858D01*
X173474286Y-71075715D01*
X173474286Y-71432858D01*
X173402858Y-71575715D01*
X173331429Y-71647144D01*
X173188572Y-71718572D01*
X172831429Y-71718572D01*
X172688572Y-71647144D01*
X172617143Y-71575715D01*
X174760000Y-70218572D02*
X174474286Y-70218572D01*
X174331429Y-70290001D01*
X174260000Y-70361430D01*
X174117143Y-70575715D01*
X174045714Y-70861430D01*
X174045714Y-71432858D01*
X174117143Y-71575715D01*
X174188571Y-71647144D01*
X174331429Y-71718572D01*
X174617143Y-71718572D01*
X174760000Y-71647144D01*
X174831429Y-71575715D01*
X174902857Y-71432858D01*
X174902857Y-71075715D01*
X174831429Y-70932858D01*
X174760000Y-70861430D01*
X174617143Y-70790001D01*
X174331429Y-70790001D01*
X174188571Y-70861430D01*
X174117143Y-70932858D01*
X174045714Y-71075715D01*
X175831428Y-70218572D02*
X175974285Y-70218572D01*
X176117142Y-70290001D01*
X176188571Y-70361430D01*
X176260000Y-70504287D01*
X176331428Y-70790001D01*
X176331428Y-71147144D01*
X176260000Y-71432858D01*
X176188571Y-71575715D01*
X176117142Y-71647144D01*
X175974285Y-71718572D01*
X175831428Y-71718572D01*
X175688571Y-71647144D01*
X175617142Y-71575715D01*
X175545714Y-71432858D01*
X175474285Y-71147144D01*
X175474285Y-70790001D01*
X175545714Y-70504287D01*
X175617142Y-70361430D01*
X175688571Y-70290001D01*
X175831428Y-70218572D01*
X178117142Y-71718572D02*
X178117142Y-70718572D01*
X178117142Y-70861430D02*
X178188570Y-70790001D01*
X178331428Y-70718572D01*
X178545713Y-70718572D01*
X178688570Y-70790001D01*
X178759999Y-70932858D01*
X178759999Y-71718572D01*
X178759999Y-70932858D02*
X178831428Y-70790001D01*
X178974285Y-70718572D01*
X179188570Y-70718572D01*
X179331428Y-70790001D01*
X179402856Y-70932858D01*
X179402856Y-71718572D01*
X180117142Y-71718572D02*
X180117142Y-70718572D01*
X180117142Y-70861430D02*
X180188570Y-70790001D01*
X180331428Y-70718572D01*
X180545713Y-70718572D01*
X180688570Y-70790001D01*
X180759999Y-70932858D01*
X180759999Y-71718572D01*
X180759999Y-70932858D02*
X180831428Y-70790001D01*
X180974285Y-70718572D01*
X181188570Y-70718572D01*
X181331428Y-70790001D01*
X181402856Y-70932858D01*
X181402856Y-71718572D01*
X193040000Y-72390001D02*
X157480000Y-72390001D01*
X193040000Y-74930000D02*
X193040000Y-69690001D01*
X157480000Y-74930000D02*
X157480000Y-69690001D01*
X157480000Y-72390001D02*
X158606504Y-71803580D01*
X157480000Y-72390001D02*
X158606504Y-72976422D01*
X193040000Y-72390001D02*
X191913496Y-71803580D01*
X193040000Y-72390001D02*
X191913496Y-72976422D01*
X202688571Y-82050715D02*
X202760000Y-82122144D01*
X202831429Y-82265001D01*
X202831429Y-82622144D01*
X202760000Y-82765001D01*
X202688571Y-82836430D01*
X202545714Y-82907858D01*
X202402857Y-82907858D01*
X202188571Y-82836430D01*
X201331429Y-81979287D01*
X201331429Y-82907858D01*
X201331429Y-84336429D02*
X201331429Y-83479286D01*
X201331429Y-83907858D02*
X202831429Y-83907858D01*
X202617143Y-83765001D01*
X202474286Y-83622143D01*
X202402857Y-83479286D01*
X201402857Y-85050714D02*
X201331429Y-85050714D01*
X201188571Y-84979286D01*
X201117143Y-84907857D01*
X202831429Y-86407858D02*
X202831429Y-85693572D01*
X202117143Y-85622143D01*
X202188571Y-85693572D01*
X202260000Y-85836429D01*
X202260000Y-86193572D01*
X202188571Y-86336429D01*
X202117143Y-86407858D01*
X201974286Y-86479286D01*
X201617143Y-86479286D01*
X201474286Y-86407858D01*
X201402857Y-86336429D01*
X201331429Y-86193572D01*
X201331429Y-85836429D01*
X201402857Y-85693572D01*
X201474286Y-85622143D01*
X201331429Y-87193571D02*
X201331429Y-87479286D01*
X201402857Y-87622143D01*
X201474286Y-87693571D01*
X201688571Y-87836429D01*
X201974286Y-87907857D01*
X202545714Y-87907857D01*
X202688571Y-87836429D01*
X202760000Y-87765000D01*
X202831429Y-87622143D01*
X202831429Y-87336429D01*
X202760000Y-87193571D01*
X202688571Y-87122143D01*
X202545714Y-87050714D01*
X202188571Y-87050714D01*
X202045714Y-87122143D01*
X201974286Y-87193571D01*
X201902857Y-87336429D01*
X201902857Y-87622143D01*
X201974286Y-87765000D01*
X202045714Y-87836429D01*
X202188571Y-87907857D01*
X202831429Y-88836428D02*
X202831429Y-88979285D01*
X202760000Y-89122142D01*
X202688571Y-89193571D01*
X202545714Y-89265000D01*
X202260000Y-89336428D01*
X201902857Y-89336428D01*
X201617143Y-89265000D01*
X201474286Y-89193571D01*
X201402857Y-89122142D01*
X201331429Y-88979285D01*
X201331429Y-88836428D01*
X201402857Y-88693571D01*
X201474286Y-88622142D01*
X201617143Y-88550714D01*
X201902857Y-88479285D01*
X202260000Y-88479285D01*
X202545714Y-88550714D01*
X202688571Y-88622142D01*
X202760000Y-88693571D01*
X202831429Y-88836428D01*
X201331429Y-91122142D02*
X202331429Y-91122142D01*
X202188571Y-91122142D02*
X202260000Y-91193570D01*
X202331429Y-91336428D01*
X202331429Y-91550713D01*
X202260000Y-91693570D01*
X202117143Y-91764999D01*
X201331429Y-91764999D01*
X202117143Y-91764999D02*
X202260000Y-91836428D01*
X202331429Y-91979285D01*
X202331429Y-92193570D01*
X202260000Y-92336428D01*
X202117143Y-92407856D01*
X201331429Y-92407856D01*
X201331429Y-93122142D02*
X202331429Y-93122142D01*
X202188571Y-93122142D02*
X202260000Y-93193570D01*
X202331429Y-93336428D01*
X202331429Y-93550713D01*
X202260000Y-93693570D01*
X202117143Y-93764999D01*
X201331429Y-93764999D01*
X202117143Y-93764999D02*
X202260000Y-93836428D01*
X202331429Y-93979285D01*
X202331429Y-94193570D01*
X202260000Y-94336428D01*
X202117143Y-94407856D01*
X201331429Y-94407856D01*
X200660000Y-77470000D02*
X200660000Y-99060000D01*
X196850000Y-77470000D02*
X203360000Y-77470000D01*
X196850000Y-99060000D02*
X203360000Y-99060000D01*
X200660000Y-99060000D02*
X200073579Y-97933496D01*
X200660000Y-99060000D02*
X201246421Y-97933496D01*
X200660000Y-77470000D02*
X200073579Y-78596504D01*
X200660000Y-77470000D02*
X201246421Y-78596504D01*
D13*
X188950000Y-96520000D02*
X188950000Y-98070000D01*
X188950000Y-98070000D02*
X192050000Y-98070000D01*
X192050000Y-98070000D02*
X192050000Y-96520000D01*
X189230000Y-95250000D02*
X189230000Y-90170000D01*
X189230000Y-90170000D02*
X191770000Y-90170000D01*
X191770000Y-90170000D02*
X191770000Y-95250000D01*
X191770000Y-95250000D02*
X189230000Y-95250000D01*
X184457340Y-91826080D02*
X184757060Y-92075000D01*
X184757060Y-92075000D02*
X184906920Y-92176600D01*
X184906920Y-92176600D02*
X184058560Y-92176600D01*
X185958480Y-91475560D02*
X184157620Y-91475560D01*
X185958480Y-91475560D02*
X185958480Y-92125800D01*
X185958480Y-95976440D02*
X184157620Y-95976440D01*
X185958480Y-95976440D02*
X185958480Y-95326200D01*
X178508660Y-95625920D02*
X178208940Y-95377000D01*
X178208940Y-95377000D02*
X178059080Y-95275400D01*
X178059080Y-95275400D02*
X178907440Y-95275400D01*
X177007520Y-95976440D02*
X178808380Y-95976440D01*
X177007520Y-95976440D02*
X177007520Y-95326200D01*
X177007520Y-91475560D02*
X178808380Y-91475560D01*
X177007520Y-91475560D02*
X177007520Y-92125800D01*
X183992000Y-97755000D02*
X183292000Y-97755000D01*
X183292000Y-96555000D02*
X183992000Y-96555000D01*
X179674000Y-97755000D02*
X178974000Y-97755000D01*
X178974000Y-96555000D02*
X179674000Y-96555000D01*
X169768000Y-91024000D02*
X169068000Y-91024000D01*
X169068000Y-89824000D02*
X169768000Y-89824000D01*
X169768000Y-98517000D02*
X169068000Y-98517000D01*
X169068000Y-97317000D02*
X169768000Y-97317000D01*
X167640000Y-80290000D02*
X169190000Y-80290000D01*
X169190000Y-80290000D02*
X169190000Y-77190000D01*
X169190000Y-77190000D02*
X167640000Y-77190000D01*
X166370000Y-80010000D02*
X161290000Y-80010000D01*
X161290000Y-80010000D02*
X161290000Y-77470000D01*
X161290000Y-77470000D02*
X166370000Y-77470000D01*
X166370000Y-77470000D02*
X166370000Y-80010000D01*
X182880000Y-77190000D02*
X181330000Y-77190000D01*
X181330000Y-77190000D02*
X181330000Y-80290000D01*
X181330000Y-80290000D02*
X182880000Y-80290000D01*
X184150000Y-77470000D02*
X189230000Y-77470000D01*
X189230000Y-77470000D02*
X189230000Y-80010000D01*
X189230000Y-80010000D02*
X184150000Y-80010000D01*
X184150000Y-80010000D02*
X184150000Y-77470000D01*
X167343000Y-91659000D02*
X167343000Y-91804000D01*
X171493000Y-91659000D02*
X171493000Y-91804000D01*
X171493000Y-96809000D02*
X171493000Y-96664000D01*
X167343000Y-96809000D02*
X167343000Y-96664000D01*
X167343000Y-91659000D02*
X171493000Y-91659000D01*
X167343000Y-96809000D02*
X171493000Y-96809000D01*
X167343000Y-91804000D02*
X165943000Y-91804000D01*
D14*
G36*
X162321925Y-90574187D02*
X162698184Y-90577737D01*
X162761186Y-90916564D01*
X162780224Y-91015825D01*
X162798134Y-91103252D01*
X162814200Y-91175718D01*
X162827708Y-91230097D01*
X162837942Y-91263264D01*
X162842489Y-91271958D01*
X162861113Y-91282654D01*
X162899614Y-91300685D01*
X162953003Y-91324030D01*
X163016291Y-91350672D01*
X163084491Y-91378591D01*
X163152612Y-91405768D01*
X163215667Y-91430185D01*
X163268665Y-91449823D01*
X163306620Y-91462662D01*
X163323804Y-91466737D01*
X163340262Y-91459441D01*
X163375480Y-91438906D01*
X163426270Y-91407159D01*
X163489443Y-91366229D01*
X163561809Y-91318144D01*
X163628559Y-91272895D01*
X163706741Y-91220189D01*
X163778989Y-91172933D01*
X163842007Y-91133169D01*
X163892495Y-91102938D01*
X163927157Y-91084283D01*
X163941643Y-91079053D01*
X163959625Y-91086779D01*
X163991250Y-91110535D01*
X164037487Y-91151188D01*
X164099301Y-91209605D01*
X164177662Y-91286652D01*
X164214816Y-91323847D01*
X164280585Y-91390583D01*
X164339620Y-91451668D01*
X164389409Y-91504407D01*
X164427441Y-91546105D01*
X164451203Y-91574066D01*
X164458316Y-91585179D01*
X164451013Y-91600217D01*
X164430434Y-91634143D01*
X164398568Y-91683893D01*
X164357407Y-91746407D01*
X164308940Y-91818623D01*
X164257098Y-91894658D01*
X164055880Y-92187599D01*
X164164822Y-92441628D01*
X164204361Y-92531654D01*
X164238466Y-92604914D01*
X164266053Y-92659250D01*
X164286039Y-92692506D01*
X164295856Y-92702491D01*
X164314779Y-92706799D01*
X164356068Y-92715229D01*
X164415802Y-92727013D01*
X164490061Y-92741384D01*
X164574925Y-92757574D01*
X164635367Y-92768983D01*
X164724525Y-92785970D01*
X164805121Y-92801766D01*
X164873367Y-92815591D01*
X164925475Y-92826669D01*
X164957658Y-92834221D01*
X164966236Y-92836951D01*
X164970537Y-92852953D01*
X164974075Y-92894214D01*
X164976796Y-92959265D01*
X164978649Y-93046637D01*
X164979580Y-93154862D01*
X164979684Y-93211042D01*
X164979684Y-93576823D01*
X164942921Y-93584346D01*
X164918644Y-93589038D01*
X164872799Y-93597652D01*
X164810117Y-93609307D01*
X164735332Y-93623125D01*
X164653177Y-93638225D01*
X164645473Y-93639637D01*
X164561939Y-93655130D01*
X164484471Y-93669843D01*
X164418051Y-93682803D01*
X164367657Y-93693037D01*
X164338270Y-93699574D01*
X164337192Y-93699851D01*
X164321036Y-93704635D01*
X164307553Y-93711720D01*
X164294903Y-93724409D01*
X164281247Y-93746006D01*
X164264746Y-93779814D01*
X164243561Y-93829136D01*
X164215851Y-93897276D01*
X164186798Y-93969945D01*
X164155896Y-94048237D01*
X164128713Y-94118718D01*
X164106732Y-94177402D01*
X164091442Y-94220304D01*
X164084327Y-94243438D01*
X164084000Y-94245705D01*
X164091294Y-94261518D01*
X164111738Y-94295888D01*
X164143177Y-94345451D01*
X164183454Y-94406843D01*
X164230413Y-94476700D01*
X164256823Y-94515351D01*
X164317936Y-94604364D01*
X164365452Y-94674020D01*
X164400914Y-94727001D01*
X164425860Y-94765990D01*
X164441831Y-94793670D01*
X164450367Y-94812724D01*
X164453009Y-94825835D01*
X164451295Y-94835686D01*
X164446767Y-94844958D01*
X164446412Y-94845605D01*
X164433679Y-94861154D01*
X164404597Y-94892623D01*
X164361890Y-94937193D01*
X164308283Y-94992047D01*
X164246500Y-95054367D01*
X164192707Y-95108013D01*
X164106752Y-95192305D01*
X164038292Y-95257193D01*
X163986868Y-95303085D01*
X163952019Y-95330389D01*
X163933286Y-95339511D01*
X163931573Y-95339247D01*
X163915109Y-95329690D01*
X163880063Y-95307159D01*
X163829831Y-95273914D01*
X163767806Y-95232210D01*
X163697382Y-95184306D01*
X163657353Y-95156859D01*
X163583932Y-95106615D01*
X163517200Y-95061399D01*
X163460525Y-95023459D01*
X163417275Y-94995038D01*
X163390820Y-94978384D01*
X163384706Y-94975075D01*
X163365875Y-94978206D01*
X163329571Y-94992280D01*
X163281483Y-95014881D01*
X163240398Y-95036361D01*
X163173292Y-95070978D01*
X163126889Y-95090297D01*
X163100232Y-95094695D01*
X163096014Y-95093207D01*
X163086653Y-95078448D01*
X163068700Y-95041919D01*
X163043392Y-94986609D01*
X163011966Y-94915506D01*
X162975660Y-94831601D01*
X162935711Y-94737881D01*
X162893355Y-94637335D01*
X162849831Y-94532952D01*
X162806376Y-94427722D01*
X162764226Y-94324632D01*
X162724619Y-94226672D01*
X162688793Y-94136831D01*
X162657984Y-94058097D01*
X162633430Y-93993460D01*
X162616368Y-93945907D01*
X162608035Y-93918429D01*
X162607526Y-93913158D01*
X162621813Y-93895984D01*
X162652291Y-93871007D01*
X162688270Y-93846316D01*
X162755337Y-93796356D01*
X162825060Y-93731776D01*
X162890542Y-93659986D01*
X162944891Y-93588392D01*
X162974402Y-93538879D01*
X163024312Y-93412745D01*
X163049345Y-93285096D01*
X163051058Y-93158449D01*
X163031004Y-93035323D01*
X162990738Y-92918237D01*
X162931815Y-92809708D01*
X162855789Y-92712255D01*
X162764216Y-92628396D01*
X162658651Y-92560650D01*
X162540647Y-92511534D01*
X162411760Y-92483566D01*
X162319368Y-92477914D01*
X162183815Y-92490168D01*
X162058146Y-92525256D01*
X161943910Y-92580666D01*
X161842661Y-92653886D01*
X161755948Y-92742404D01*
X161685324Y-92843707D01*
X161632339Y-92955284D01*
X161598545Y-93074622D01*
X161585493Y-93199210D01*
X161594735Y-93326535D01*
X161627822Y-93454085D01*
X161664265Y-93538742D01*
X161706227Y-93606353D01*
X161764516Y-93679491D01*
X161832130Y-93750617D01*
X161902070Y-93812192D01*
X161949836Y-93846316D01*
X161989220Y-93873388D01*
X162018687Y-93897861D01*
X162031100Y-93913158D01*
X162027602Y-93929496D01*
X162014758Y-93967398D01*
X161993804Y-94023877D01*
X161965979Y-94095943D01*
X161932518Y-94180609D01*
X161894658Y-94274885D01*
X161853637Y-94375783D01*
X161810691Y-94480314D01*
X161767057Y-94585490D01*
X161723972Y-94688323D01*
X161682673Y-94785823D01*
X161644396Y-94875002D01*
X161610379Y-94952872D01*
X161581858Y-95016444D01*
X161560071Y-95062730D01*
X161546253Y-95088741D01*
X161542722Y-95093207D01*
X161521684Y-95093120D01*
X161481180Y-95078223D01*
X161420255Y-95048139D01*
X161398338Y-95036361D01*
X161345085Y-95008878D01*
X161299278Y-94988080D01*
X161266603Y-94976383D01*
X161254030Y-94975075D01*
X161238032Y-94984450D01*
X161203422Y-95006803D01*
X161153571Y-95039888D01*
X161091845Y-95081458D01*
X161021613Y-95129269D01*
X160981384Y-95156859D01*
X160907852Y-95207159D01*
X160840898Y-95252469D01*
X160783916Y-95290531D01*
X160740300Y-95319089D01*
X160713445Y-95335885D01*
X160707132Y-95339259D01*
X160691640Y-95333492D01*
X160660359Y-95309927D01*
X160612781Y-95268111D01*
X160548397Y-95207591D01*
X160466701Y-95127914D01*
X160433624Y-95095119D01*
X160366331Y-95027539D01*
X160305766Y-94965514D01*
X160254409Y-94911685D01*
X160214745Y-94868691D01*
X160189256Y-94839174D01*
X160180421Y-94825851D01*
X160187721Y-94810442D01*
X160208243Y-94776301D01*
X160239919Y-94726631D01*
X160280678Y-94664633D01*
X160328453Y-94593508D01*
X160367579Y-94536196D01*
X160419264Y-94460286D01*
X160465479Y-94391051D01*
X160504155Y-94331706D01*
X160533221Y-94285462D01*
X160550607Y-94255532D01*
X160554737Y-94245736D01*
X160549962Y-94228317D01*
X160536631Y-94190105D01*
X160516228Y-94135089D01*
X160490239Y-94067253D01*
X160460150Y-93990585D01*
X160451939Y-93969945D01*
X160417466Y-93883805D01*
X160391032Y-93819204D01*
X160370797Y-93772839D01*
X160354923Y-93741406D01*
X160341570Y-93721599D01*
X160328897Y-93710114D01*
X160315066Y-93703647D01*
X160301544Y-93699763D01*
X160279212Y-93694821D01*
X160236281Y-93686111D01*
X160177261Y-93674489D01*
X160106668Y-93660809D01*
X160029014Y-93645927D01*
X159948813Y-93630699D01*
X159870578Y-93615980D01*
X159798822Y-93602626D01*
X159738058Y-93591492D01*
X159692801Y-93583434D01*
X159667563Y-93579307D01*
X159664163Y-93578947D01*
X159661621Y-93566274D01*
X159659786Y-93531017D01*
X159658612Y-93477315D01*
X159658052Y-93409312D01*
X159658059Y-93331148D01*
X159658588Y-93246964D01*
X159659592Y-93160902D01*
X159661023Y-93077103D01*
X159662837Y-92999709D01*
X159664985Y-92932861D01*
X159667422Y-92880700D01*
X159670101Y-92847367D01*
X159672500Y-92836951D01*
X159688922Y-92832249D01*
X159727853Y-92823492D01*
X159785504Y-92811455D01*
X159858088Y-92796919D01*
X159941817Y-92780660D01*
X160003369Y-92768983D01*
X160093119Y-92752007D01*
X160174874Y-92736340D01*
X160244714Y-92722748D01*
X160298718Y-92711999D01*
X160332966Y-92704862D01*
X160342881Y-92702491D01*
X160355974Y-92687737D01*
X160377538Y-92650169D01*
X160406492Y-92591944D01*
X160441750Y-92515219D01*
X160473914Y-92441628D01*
X160582857Y-92187599D01*
X160381639Y-91894658D01*
X160328009Y-91815981D01*
X160279763Y-91744052D01*
X160238892Y-91681930D01*
X160207385Y-91632679D01*
X160187234Y-91599359D01*
X160180421Y-91585179D01*
X160189501Y-91571584D01*
X160215068Y-91541871D01*
X160254610Y-91498738D01*
X160305615Y-91444879D01*
X160365570Y-91382991D01*
X160423920Y-91323847D01*
X160507401Y-91240763D01*
X160574198Y-91176233D01*
X160625647Y-91129062D01*
X160663089Y-91098055D01*
X160687860Y-91082018D01*
X160698026Y-91079053D01*
X160717885Y-91086550D01*
X160756471Y-91107809D01*
X160810804Y-91140979D01*
X160877906Y-91184210D01*
X160954797Y-91235652D01*
X160999290Y-91266158D01*
X161075712Y-91318495D01*
X161146225Y-91365854D01*
X161207435Y-91406028D01*
X161255947Y-91436813D01*
X161288369Y-91456005D01*
X161299737Y-91461377D01*
X161320374Y-91458902D01*
X161360635Y-91447730D01*
X161415587Y-91429741D01*
X161480299Y-91406814D01*
X161549839Y-91380831D01*
X161619276Y-91353670D01*
X161683677Y-91327212D01*
X161738110Y-91303338D01*
X161777644Y-91283926D01*
X161796006Y-91272199D01*
X161803655Y-91254650D01*
X161815019Y-91214378D01*
X161829257Y-91155007D01*
X161845524Y-91080160D01*
X161862977Y-90993460D01*
X161872495Y-90943543D01*
X161889330Y-90853924D01*
X161904897Y-90771761D01*
X161918410Y-90701146D01*
X161929082Y-90646169D01*
X161936129Y-90610923D01*
X161938295Y-90600924D01*
X161945666Y-90570638D01*
X162321925Y-90574187D01*
X162321925Y-90574187D01*
G37*
X162321925Y-90574187D02*
X162698184Y-90577737D01*
X162761186Y-90916564D01*
X162780224Y-91015825D01*
X162798134Y-91103252D01*
X162814200Y-91175718D01*
X162827708Y-91230097D01*
X162837942Y-91263264D01*
X162842489Y-91271958D01*
X162861113Y-91282654D01*
X162899614Y-91300685D01*
X162953003Y-91324030D01*
X163016291Y-91350672D01*
X163084491Y-91378591D01*
X163152612Y-91405768D01*
X163215667Y-91430185D01*
X163268665Y-91449823D01*
X163306620Y-91462662D01*
X163323804Y-91466737D01*
X163340262Y-91459441D01*
X163375480Y-91438906D01*
X163426270Y-91407159D01*
X163489443Y-91366229D01*
X163561809Y-91318144D01*
X163628559Y-91272895D01*
X163706741Y-91220189D01*
X163778989Y-91172933D01*
X163842007Y-91133169D01*
X163892495Y-91102938D01*
X163927157Y-91084283D01*
X163941643Y-91079053D01*
X163959625Y-91086779D01*
X163991250Y-91110535D01*
X164037487Y-91151188D01*
X164099301Y-91209605D01*
X164177662Y-91286652D01*
X164214816Y-91323847D01*
X164280585Y-91390583D01*
X164339620Y-91451668D01*
X164389409Y-91504407D01*
X164427441Y-91546105D01*
X164451203Y-91574066D01*
X164458316Y-91585179D01*
X164451013Y-91600217D01*
X164430434Y-91634143D01*
X164398568Y-91683893D01*
X164357407Y-91746407D01*
X164308940Y-91818623D01*
X164257098Y-91894658D01*
X164055880Y-92187599D01*
X164164822Y-92441628D01*
X164204361Y-92531654D01*
X164238466Y-92604914D01*
X164266053Y-92659250D01*
X164286039Y-92692506D01*
X164295856Y-92702491D01*
X164314779Y-92706799D01*
X164356068Y-92715229D01*
X164415802Y-92727013D01*
X164490061Y-92741384D01*
X164574925Y-92757574D01*
X164635367Y-92768983D01*
X164724525Y-92785970D01*
X164805121Y-92801766D01*
X164873367Y-92815591D01*
X164925475Y-92826669D01*
X164957658Y-92834221D01*
X164966236Y-92836951D01*
X164970537Y-92852953D01*
X164974075Y-92894214D01*
X164976796Y-92959265D01*
X164978649Y-93046637D01*
X164979580Y-93154862D01*
X164979684Y-93211042D01*
X164979684Y-93576823D01*
X164942921Y-93584346D01*
X164918644Y-93589038D01*
X164872799Y-93597652D01*
X164810117Y-93609307D01*
X164735332Y-93623125D01*
X164653177Y-93638225D01*
X164645473Y-93639637D01*
X164561939Y-93655130D01*
X164484471Y-93669843D01*
X164418051Y-93682803D01*
X164367657Y-93693037D01*
X164338270Y-93699574D01*
X164337192Y-93699851D01*
X164321036Y-93704635D01*
X164307553Y-93711720D01*
X164294903Y-93724409D01*
X164281247Y-93746006D01*
X164264746Y-93779814D01*
X164243561Y-93829136D01*
X164215851Y-93897276D01*
X164186798Y-93969945D01*
X164155896Y-94048237D01*
X164128713Y-94118718D01*
X164106732Y-94177402D01*
X164091442Y-94220304D01*
X164084327Y-94243438D01*
X164084000Y-94245705D01*
X164091294Y-94261518D01*
X164111738Y-94295888D01*
X164143177Y-94345451D01*
X164183454Y-94406843D01*
X164230413Y-94476700D01*
X164256823Y-94515351D01*
X164317936Y-94604364D01*
X164365452Y-94674020D01*
X164400914Y-94727001D01*
X164425860Y-94765990D01*
X164441831Y-94793670D01*
X164450367Y-94812724D01*
X164453009Y-94825835D01*
X164451295Y-94835686D01*
X164446767Y-94844958D01*
X164446412Y-94845605D01*
X164433679Y-94861154D01*
X164404597Y-94892623D01*
X164361890Y-94937193D01*
X164308283Y-94992047D01*
X164246500Y-95054367D01*
X164192707Y-95108013D01*
X164106752Y-95192305D01*
X164038292Y-95257193D01*
X163986868Y-95303085D01*
X163952019Y-95330389D01*
X163933286Y-95339511D01*
X163931573Y-95339247D01*
X163915109Y-95329690D01*
X163880063Y-95307159D01*
X163829831Y-95273914D01*
X163767806Y-95232210D01*
X163697382Y-95184306D01*
X163657353Y-95156859D01*
X163583932Y-95106615D01*
X163517200Y-95061399D01*
X163460525Y-95023459D01*
X163417275Y-94995038D01*
X163390820Y-94978384D01*
X163384706Y-94975075D01*
X163365875Y-94978206D01*
X163329571Y-94992280D01*
X163281483Y-95014881D01*
X163240398Y-95036361D01*
X163173292Y-95070978D01*
X163126889Y-95090297D01*
X163100232Y-95094695D01*
X163096014Y-95093207D01*
X163086653Y-95078448D01*
X163068700Y-95041919D01*
X163043392Y-94986609D01*
X163011966Y-94915506D01*
X162975660Y-94831601D01*
X162935711Y-94737881D01*
X162893355Y-94637335D01*
X162849831Y-94532952D01*
X162806376Y-94427722D01*
X162764226Y-94324632D01*
X162724619Y-94226672D01*
X162688793Y-94136831D01*
X162657984Y-94058097D01*
X162633430Y-93993460D01*
X162616368Y-93945907D01*
X162608035Y-93918429D01*
X162607526Y-93913158D01*
X162621813Y-93895984D01*
X162652291Y-93871007D01*
X162688270Y-93846316D01*
X162755337Y-93796356D01*
X162825060Y-93731776D01*
X162890542Y-93659986D01*
X162944891Y-93588392D01*
X162974402Y-93538879D01*
X163024312Y-93412745D01*
X163049345Y-93285096D01*
X163051058Y-93158449D01*
X163031004Y-93035323D01*
X162990738Y-92918237D01*
X162931815Y-92809708D01*
X162855789Y-92712255D01*
X162764216Y-92628396D01*
X162658651Y-92560650D01*
X162540647Y-92511534D01*
X162411760Y-92483566D01*
X162319368Y-92477914D01*
X162183815Y-92490168D01*
X162058146Y-92525256D01*
X161943910Y-92580666D01*
X161842661Y-92653886D01*
X161755948Y-92742404D01*
X161685324Y-92843707D01*
X161632339Y-92955284D01*
X161598545Y-93074622D01*
X161585493Y-93199210D01*
X161594735Y-93326535D01*
X161627822Y-93454085D01*
X161664265Y-93538742D01*
X161706227Y-93606353D01*
X161764516Y-93679491D01*
X161832130Y-93750617D01*
X161902070Y-93812192D01*
X161949836Y-93846316D01*
X161989220Y-93873388D01*
X162018687Y-93897861D01*
X162031100Y-93913158D01*
X162027602Y-93929496D01*
X162014758Y-93967398D01*
X161993804Y-94023877D01*
X161965979Y-94095943D01*
X161932518Y-94180609D01*
X161894658Y-94274885D01*
X161853637Y-94375783D01*
X161810691Y-94480314D01*
X161767057Y-94585490D01*
X161723972Y-94688323D01*
X161682673Y-94785823D01*
X161644396Y-94875002D01*
X161610379Y-94952872D01*
X161581858Y-95016444D01*
X161560071Y-95062730D01*
X161546253Y-95088741D01*
X161542722Y-95093207D01*
X161521684Y-95093120D01*
X161481180Y-95078223D01*
X161420255Y-95048139D01*
X161398338Y-95036361D01*
X161345085Y-95008878D01*
X161299278Y-94988080D01*
X161266603Y-94976383D01*
X161254030Y-94975075D01*
X161238032Y-94984450D01*
X161203422Y-95006803D01*
X161153571Y-95039888D01*
X161091845Y-95081458D01*
X161021613Y-95129269D01*
X160981384Y-95156859D01*
X160907852Y-95207159D01*
X160840898Y-95252469D01*
X160783916Y-95290531D01*
X160740300Y-95319089D01*
X160713445Y-95335885D01*
X160707132Y-95339259D01*
X160691640Y-95333492D01*
X160660359Y-95309927D01*
X160612781Y-95268111D01*
X160548397Y-95207591D01*
X160466701Y-95127914D01*
X160433624Y-95095119D01*
X160366331Y-95027539D01*
X160305766Y-94965514D01*
X160254409Y-94911685D01*
X160214745Y-94868691D01*
X160189256Y-94839174D01*
X160180421Y-94825851D01*
X160187721Y-94810442D01*
X160208243Y-94776301D01*
X160239919Y-94726631D01*
X160280678Y-94664633D01*
X160328453Y-94593508D01*
X160367579Y-94536196D01*
X160419264Y-94460286D01*
X160465479Y-94391051D01*
X160504155Y-94331706D01*
X160533221Y-94285462D01*
X160550607Y-94255532D01*
X160554737Y-94245736D01*
X160549962Y-94228317D01*
X160536631Y-94190105D01*
X160516228Y-94135089D01*
X160490239Y-94067253D01*
X160460150Y-93990585D01*
X160451939Y-93969945D01*
X160417466Y-93883805D01*
X160391032Y-93819204D01*
X160370797Y-93772839D01*
X160354923Y-93741406D01*
X160341570Y-93721599D01*
X160328897Y-93710114D01*
X160315066Y-93703647D01*
X160301544Y-93699763D01*
X160279212Y-93694821D01*
X160236281Y-93686111D01*
X160177261Y-93674489D01*
X160106668Y-93660809D01*
X160029014Y-93645927D01*
X159948813Y-93630699D01*
X159870578Y-93615980D01*
X159798822Y-93602626D01*
X159738058Y-93591492D01*
X159692801Y-93583434D01*
X159667563Y-93579307D01*
X159664163Y-93578947D01*
X159661621Y-93566274D01*
X159659786Y-93531017D01*
X159658612Y-93477315D01*
X159658052Y-93409312D01*
X159658059Y-93331148D01*
X159658588Y-93246964D01*
X159659592Y-93160902D01*
X159661023Y-93077103D01*
X159662837Y-92999709D01*
X159664985Y-92932861D01*
X159667422Y-92880700D01*
X159670101Y-92847367D01*
X159672500Y-92836951D01*
X159688922Y-92832249D01*
X159727853Y-92823492D01*
X159785504Y-92811455D01*
X159858088Y-92796919D01*
X159941817Y-92780660D01*
X160003369Y-92768983D01*
X160093119Y-92752007D01*
X160174874Y-92736340D01*
X160244714Y-92722748D01*
X160298718Y-92711999D01*
X160332966Y-92704862D01*
X160342881Y-92702491D01*
X160355974Y-92687737D01*
X160377538Y-92650169D01*
X160406492Y-92591944D01*
X160441750Y-92515219D01*
X160473914Y-92441628D01*
X160582857Y-92187599D01*
X160381639Y-91894658D01*
X160328009Y-91815981D01*
X160279763Y-91744052D01*
X160238892Y-91681930D01*
X160207385Y-91632679D01*
X160187234Y-91599359D01*
X160180421Y-91585179D01*
X160189501Y-91571584D01*
X160215068Y-91541871D01*
X160254610Y-91498738D01*
X160305615Y-91444879D01*
X160365570Y-91382991D01*
X160423920Y-91323847D01*
X160507401Y-91240763D01*
X160574198Y-91176233D01*
X160625647Y-91129062D01*
X160663089Y-91098055D01*
X160687860Y-91082018D01*
X160698026Y-91079053D01*
X160717885Y-91086550D01*
X160756471Y-91107809D01*
X160810804Y-91140979D01*
X160877906Y-91184210D01*
X160954797Y-91235652D01*
X160999290Y-91266158D01*
X161075712Y-91318495D01*
X161146225Y-91365854D01*
X161207435Y-91406028D01*
X161255947Y-91436813D01*
X161288369Y-91456005D01*
X161299737Y-91461377D01*
X161320374Y-91458902D01*
X161360635Y-91447730D01*
X161415587Y-91429741D01*
X161480299Y-91406814D01*
X161549839Y-91380831D01*
X161619276Y-91353670D01*
X161683677Y-91327212D01*
X161738110Y-91303338D01*
X161777644Y-91283926D01*
X161796006Y-91272199D01*
X161803655Y-91254650D01*
X161815019Y-91214378D01*
X161829257Y-91155007D01*
X161845524Y-91080160D01*
X161862977Y-90993460D01*
X161872495Y-90943543D01*
X161889330Y-90853924D01*
X161904897Y-90771761D01*
X161918410Y-90701146D01*
X161929082Y-90646169D01*
X161936129Y-90610923D01*
X161938295Y-90600924D01*
X161945666Y-90570638D01*
X162321925Y-90574187D01*
D13*
X182785000Y-91257381D02*
X182308809Y-91257381D01*
X182308809Y-90257381D01*
X183023095Y-90257381D02*
X183689762Y-90257381D01*
X183261190Y-91257381D01*
X184213571Y-90685952D02*
X184118333Y-90638333D01*
X184070714Y-90590714D01*
X184023095Y-90495476D01*
X184023095Y-90447857D01*
X184070714Y-90352619D01*
X184118333Y-90305000D01*
X184213571Y-90257381D01*
X184404048Y-90257381D01*
X184499286Y-90305000D01*
X184546905Y-90352619D01*
X184594524Y-90447857D01*
X184594524Y-90495476D01*
X184546905Y-90590714D01*
X184499286Y-90638333D01*
X184404048Y-90685952D01*
X184213571Y-90685952D01*
X184118333Y-90733571D01*
X184070714Y-90781190D01*
X184023095Y-90876429D01*
X184023095Y-91066905D01*
X184070714Y-91162143D01*
X184118333Y-91209762D01*
X184213571Y-91257381D01*
X184404048Y-91257381D01*
X184499286Y-91209762D01*
X184546905Y-91162143D01*
X184594524Y-91066905D01*
X184594524Y-90876429D01*
X184546905Y-90781190D01*
X184499286Y-90733571D01*
X184404048Y-90685952D01*
X185499286Y-91257381D02*
X185023095Y-91257381D01*
X185023095Y-90257381D01*
X186356429Y-91257381D02*
X185785000Y-91257381D01*
X186070714Y-91257381D02*
X186070714Y-90257381D01*
X185975476Y-90400238D01*
X185880238Y-90495476D01*
X185785000Y-90543095D01*
X186737381Y-90352619D02*
X186785000Y-90305000D01*
X186880238Y-90257381D01*
X187118334Y-90257381D01*
X187213572Y-90305000D01*
X187261191Y-90352619D01*
X187308810Y-90447857D01*
X187308810Y-90543095D01*
X187261191Y-90685952D01*
X186689762Y-91257381D01*
X187308810Y-91257381D01*
X176435000Y-91257381D02*
X175958809Y-91257381D01*
X175958809Y-90257381D01*
X176673095Y-90257381D02*
X177339762Y-90257381D01*
X176911190Y-91257381D01*
X177768333Y-91257381D02*
X177958809Y-91257381D01*
X178054048Y-91209762D01*
X178101667Y-91162143D01*
X178196905Y-91019286D01*
X178244524Y-90828810D01*
X178244524Y-90447857D01*
X178196905Y-90352619D01*
X178149286Y-90305000D01*
X178054048Y-90257381D01*
X177863571Y-90257381D01*
X177768333Y-90305000D01*
X177720714Y-90352619D01*
X177673095Y-90447857D01*
X177673095Y-90685952D01*
X177720714Y-90781190D01*
X177768333Y-90828810D01*
X177863571Y-90876429D01*
X178054048Y-90876429D01*
X178149286Y-90828810D01*
X178196905Y-90781190D01*
X178244524Y-90685952D01*
X179149286Y-91257381D02*
X178673095Y-91257381D01*
X178673095Y-90257381D01*
X180006429Y-91257381D02*
X179435000Y-91257381D01*
X179720714Y-91257381D02*
X179720714Y-90257381D01*
X179625476Y-90400238D01*
X179530238Y-90495476D01*
X179435000Y-90543095D01*
X180387381Y-90352619D02*
X180435000Y-90305000D01*
X180530238Y-90257381D01*
X180768334Y-90257381D01*
X180863572Y-90305000D01*
X180911191Y-90352619D01*
X180958810Y-90447857D01*
X180958810Y-90543095D01*
X180911191Y-90685952D01*
X180339762Y-91257381D01*
X180958810Y-91257381D01*
M02*
